<?xml version="1.0" encoding="utf-8"?>
<!-- Generator: Adobe Illustrator 27.5.0, SVG Export Plug-In . SVG Version: 6.00 Build 0)  -->
<svg version="1.1" xmlns="http://www.w3.org/2000/svg" xmlns:xlink="http://www.w3.org/1999/xlink" x="0px" y="0px"
	 viewBox="0 0 500 500" style="enable-background:new 0 0 500 500;" xml:space="preserve">
<g id="BACKGROUND">
	<rect y="0.001" style="fill-rule:evenodd;clip-rule:evenodd;fill:#FFFFFF;" width="500" height="500"/>
</g>
<g id="OBJECTS">
	<g>
		<g>
			<g>
				<path style="fill-rule:evenodd;clip-rule:evenodd;fill:#94BFDF;" d="M68.671,319.662c18.133,0,32.969,14.836,32.969,32.969l0,0
					l0,0c0,33.086,27.07,60.154,60.154,60.154h17.983l0,0h139.734h70.219c42.978,0,78.144-35.163,78.144-78.143l0,0
					c0-42.979-35.165-78.145-78.144-78.145l0,0c-8.627,0-15.684-7.057-15.684-15.683l0,0c0-8.625,7.057-15.682,15.684-15.682h40.89
					c20.967,0,38.122-17.156,38.122-38.122l0,0c0-20.943-17.116-38.083-38.051-38.122c-0.023,0-37.174,0-37.199,0
					c-18.132,0-32.969-14.837-32.969-32.97l0,0l0,0c0-33.085-27.068-60.154-60.154-60.154c-58.706,0-132.102,0-190.808,0
					c-42.979,0-78.145,35.165-78.145,78.145l0,0c0,42.979,35.165,78.144,78.145,78.144l0,0c8.625,0,15.682,7.059,15.682,15.683l0,0
					c0,8.625-7.057,15.683-15.682,15.683h-40.89C18.787,243.418,18.787,319.662,68.671,319.662z"/>
				<path style="fill-rule:evenodd;clip-rule:evenodd;fill:#CCE2F0;" d="M462.985,307.51
					c-11.089-29.709-39.804-51.014-73.255-51.014l0,0c-8.627,0-15.684-7.057-15.684-15.683l0,0c0-8.625,7.057-15.682,15.684-15.682
					h40.89c20.967,0,38.122-17.156,38.122-38.122l0,0c0-20.943-17.116-38.083-38.051-38.122c-0.023,0-37.174,0-37.199,0
					c-18.132,0-32.969-14.837-32.969-32.97l0,0l0,0c0-33.085-27.068-60.154-60.154-60.154c-58.706,0-132.102,0-190.808,0
					c-42.979,0-78.145,35.165-78.145,78.145l0,0c0,42.979,35.165,78.144,78.145,78.144l0,0c8.625,0,15.682,7.059,15.682,15.683l0,0
					c0,8.625-7.057,15.683-15.682,15.683h-40.89c-37.276,0-46.692,42.572-28.257,64.092H462.985z"/>
				<g>
					<defs>
						<path id="SVGID_1_" d="M462.985,307.51c-11.089-29.709-39.804-51.014-73.255-51.014l0,0c-8.627,0-15.684-7.057-15.684-15.683
							l0,0c0-8.625,7.057-15.682,15.684-15.682h40.89c20.967,0,38.122-17.156,38.122-38.122l0,0
							c0-20.943-17.116-38.083-38.051-38.122c-0.023,0-37.174,0-37.199,0c-18.132,0-32.969-14.837-32.969-32.97l0,0l0,0
							c0-33.085-27.068-60.154-60.154-60.154c-58.706,0-132.102,0-190.808,0c-42.979,0-78.145,35.165-78.145,78.145l0,0
							c0,42.979,35.165,78.144,78.145,78.144l0,0c8.625,0,15.682,7.059,15.682,15.683l0,0c0,8.625-7.057,15.683-15.682,15.683
							h-40.89c-37.276,0-46.692,42.572-28.257,64.092H462.985z"/>
					</defs>
					<clipPath id="SVGID_00000034054098140627149760000013841569399673480588_">
						<use xlink:href="#SVGID_1_"  style="overflow:visible;"/>
					</clipPath>
					<g style="clip-path:url(#SVGID_00000034054098140627149760000013841569399673480588_);">
						<path style="fill-rule:evenodd;clip-rule:evenodd;fill:#94BFDF;" d="M49.997,413.355h0.35v-6.553h19.804h0.004h0.005h19.803
							v6.553h0.35v-6.553h19.804h0.004h0.005h19.803v6.553h0.35v-6.553h19.803h0.005h0.004h19.803v6.553h0.35v-6.553h19.803h0.005
							h0.005h19.803v6.553h0.35v-6.553h19.803h0.005h0.005h19.803v6.553h0.351v-6.553h19.803h0.003h0.006h19.803v6.553h0.35v-6.553
							h19.805h0.004h0.005h19.805v6.553h0.348v-6.553h19.805h0.004h0.004h19.805v6.553h0.349v-6.553h19.805h0.004h0.005h19.804
							v6.553h0.35v-6.553h19.805h0.003h0.005h19.804v6.553h0.349v-6.553h19.805h0.004h0.005h11.902v-0.35h-11.732v-11.491h11.732
							v-0.35h-11.902h-0.009h-19.805V383.12h19.805h0.004h0.005h11.902v-0.35h-11.732v-11.492h11.732v-0.35h-11.902h-0.009h-19.805
							v-11.492h19.805h0.004h0.005h11.902v-0.35h-11.732v-11.492h11.732v-0.35h-11.902h-0.009h-19.805v-11.492h19.805h0.004h0.005
							h11.902v-0.35h-11.732v-11.492h11.732v-0.351h-11.902h-0.009h-19.805v-11.49h19.805h0.004h0.005h11.902v-0.35h-11.732v-11.491
							h11.732v-0.351h-11.902h-0.009h-19.805v-11.491h19.805h0.004h0.005h11.902v-0.351h-11.732v-11.491h11.732v-0.351h-11.902
							h-0.009h-19.805v-11.491h19.805h0.004h0.005h11.902v-0.351h-11.732v-11.491h11.732v-0.351h-11.902h-0.009h-19.805v-11.49
							h19.805h0.004h0.005h11.902v-0.351h-11.732v-11.491h11.732v-0.351h-11.902h-0.009h-19.805v-11.491h19.805h0.004h0.005h11.902
							v-0.35h-11.732v-11.492h11.732v-0.35h-11.902h-0.009h-19.805v-11.492h19.805h0.004h0.005h11.902v-0.35h-11.732v-11.491h11.732
							v-0.35h-11.902h-0.009h-19.805V169.97h19.805h0.004h0.005h11.902v-0.35h-11.732v-11.492h11.732v-0.349h-11.902h-0.009h-19.805
							v-11.493h19.805h0.004h0.005h11.902v-0.349h-11.732v-11.492h11.732v-0.35h-11.902h-0.009h-19.805v-11.492h19.805h0.004h0.005
							h11.902v-0.35h-11.732v-11.492h11.732v-0.35h-11.902h-0.009h-19.805V98.92h19.805h0.004h0.005h11.902v-0.35h-11.732V87.079
							h11.732v-0.35h-11.902h-0.009h-19.805V75.237h19.805h0.004h0.005h11.902v-0.35h-11.732V63.395h11.732v-0.35h-11.902h-0.009
							h-19.805V51.553h19.805h0.004h0.005h11.902v-0.349h-11.732V39.711h11.732v-0.349h-11.902h-0.009h-19.805V27.87h19.805h0.004
							h0.005h11.902v-0.349h-11.732V16.028h11.732v-0.35h-11.902h-0.009h-19.805V4.188h19.805h0.004h0.005h11.902v-0.35h-11.732
							V-7.654h11.732v-0.35h-11.902h-0.009h-19.805v-11.492h19.805h0.004h0.005h11.902v-0.35h-11.732v-11.491h11.732v-0.351h-11.902
							h-0.009h-19.805v-11.491h19.805h0.004h0.005h11.902v-0.351h-11.732v-6.552h-0.35v6.552h-19.804h-0.01h-19.803v-6.552h-0.351
							v6.552H409.87h-0.01h-19.803v-6.552h-0.351v6.552h-19.804h-0.009h-19.804v-6.552h-0.35v6.552h-19.803h-0.01h-19.804v-6.552
							h-0.35v6.552h-19.803h-0.01h-19.804v-6.552h-0.351v6.552h-19.802h-0.01h-19.802v-6.552h-0.351v6.552h-19.803h-0.01h-19.803
							v-6.552h-0.351v6.552h-19.803h-0.009h-19.803v-6.552h-0.35v6.552h-19.803H130.1h-19.803v-6.552h-0.35v6.552H90.143h-0.01
							H70.33v-6.552h-0.35v6.552H50.177h-0.009H30.364v-6.552h-0.35v6.552H18.283v0.351h11.902h0.004h0.005h19.803v11.491H30.194
							h-0.009H18.283v0.351h11.731v11.491H18.283v0.35h11.902h0.004h0.005h19.803v11.492H30.194h-0.009H18.283v0.35h11.731V3.837
							H18.283v0.35h11.902h0.004h0.005h19.803v11.491H30.194h-0.009H18.283v0.35h11.731v11.492H18.283v0.349h11.902h0.004h0.005
							h19.803v11.493H30.194h-0.009H18.283v0.349h11.731v11.493H18.283v0.349h11.902h0.004h0.005h19.803v11.492H30.194h-0.009
							H18.283v0.35h11.731v11.492H18.283v0.35h11.902h0.004h0.005h19.803v11.492H30.194h-0.009H18.283v0.35h11.731V98.57H18.283
							v0.35h11.902h0.004h0.005h19.803v11.492H30.194h-0.009H18.283v0.35h11.731v11.492H18.283v0.35h11.902h0.004h0.005h19.803
							v11.492H30.194h-0.009H18.283v0.35h11.731v11.492H18.283v0.349h11.902h0.004h0.005h19.803v11.493H30.194h-0.009H18.283v0.349
							h11.731v11.492H18.283v0.35h11.902h0.004h0.005h19.803v11.491H30.194h-0.009H18.283v0.35h11.731v11.491H18.283v0.35h11.902
							h0.004h0.005h19.803v11.492H30.194h-0.009H18.283v0.35h11.731v11.492H18.283v0.35h11.902h0.004h0.005h19.803v11.491H30.194
							h-0.009H18.283v0.351h11.731v11.491H18.283v0.351h11.902h0.004h0.005h19.803v11.49H30.194h-0.009H18.283v0.351h11.731v11.491
							H18.283v0.351h11.902h0.004h0.005h19.803v11.491H30.194h-0.009H18.283v0.351h11.731v11.491H18.283v0.351h11.902h0.004h0.005
							h19.803v11.491H30.194h-0.009H18.283v0.351h11.731v11.491H18.283v0.35h11.902h0.004h0.005h19.803v11.49H30.194h-0.009H18.283
							v0.351h11.731v11.492H18.283v0.35h11.902h0.004h0.005h19.803v11.492H30.194h-0.009H18.283v0.35h11.731v11.492H18.283v0.35
							h11.902h0.004h0.005h19.803v11.492H30.194h-0.009H18.283v0.35h11.731v11.492H18.283v0.35h11.902h0.004h0.005h19.803v11.492
							H30.194h-0.009H18.283v0.35h11.731v11.491H18.283v0.35h11.902h0.004h0.005h19.803V413.355L49.997,413.355z M30.364,394.961
							h19.803h0.004h0.005H69.98v11.491H50.177h-0.009H30.364V394.961L30.364,394.961z M70.33,394.961h19.803h0.005h0.005h19.803
							v11.491H90.143h-0.01H70.33V394.961L70.33,394.961z M110.296,394.961H130.1h0.004h0.005h19.803v11.491h-19.803H130.1h-19.803
							V394.961L110.296,394.961z M150.262,394.961h19.803h0.004h0.005h19.803v11.491h-19.803h-0.009h-19.803V394.961
							L150.262,394.961z M190.229,394.961h19.803h0.005h0.005h19.803v11.491h-19.803h-0.01h-19.803V394.961L190.229,394.961z
							 M230.194,394.961h19.802h0.005h0.005h19.802v11.491h-19.802h-0.01h-19.802V394.961L230.194,394.961z M270.159,394.961h19.804
							h0.005h0.005h19.803v11.491h-19.803h-0.01h-19.804V394.961L270.159,394.961z M310.125,394.961h19.804h0.005h0.005h19.803
							v11.491h-19.803h-0.01h-19.804V394.961L310.125,394.961z M350.091,394.961h19.804h0.004h0.005h19.804v11.491h-19.804h-0.009
							h-19.804V394.961L350.091,394.961z M390.058,394.961h19.803h0.005h0.005h19.803v11.491H409.87h-0.01h-19.803V394.961
							L390.058,394.961z M430.023,394.961h19.803h0.005h0.005h19.804v11.491h-19.804h-0.01h-19.803V394.961L430.023,394.961z
							 M50.347,383.12h19.804h0.004h0.005h19.803v11.492H70.16h-0.009H50.347V383.12L50.347,383.12z M90.313,383.12h19.804h0.004
							h0.005h19.803v11.492h-19.803h-0.009H90.313V383.12L90.313,383.12z M130.279,383.12h19.803h0.005h0.004h19.803v11.492h-19.803
							h-0.009h-19.803V383.12L130.279,383.12z M170.245,383.12h19.803h0.005h0.005h19.803v11.492h-19.803h-0.01h-19.803V383.12
							L170.245,383.12z M210.211,383.12h19.803h0.005h0.005h19.803v11.492h-19.803h-0.01h-19.803V383.12L210.211,383.12z
							 M250.177,383.12h19.803h0.003h0.006h19.803v11.492h-19.803h-0.009h-19.803V383.12L250.177,383.12z M290.142,383.12h19.805
							h0.004h0.005h19.805v11.492h-19.805h-0.009h-19.805V383.12L290.142,383.12z M330.107,383.12h19.805h0.004h0.004h19.805v11.492
							H349.92h-0.008h-19.805V383.12L330.107,383.12z M370.073,383.12h19.805h0.004h0.005h19.804v11.492h-19.804h-0.009h-19.805
							V383.12L370.073,383.12z M410.04,383.12h19.805h0.003h0.005h19.804v11.492h-19.804h-0.008H410.04V383.12L410.04,383.12z
							 M30.364,371.278h19.803h0.004h0.005H69.98v11.492H50.177h-0.009H30.364V371.278L30.364,371.278z M70.33,371.278h19.803h0.005
							h0.005h19.803v11.492H90.143h-0.01H70.33V371.278L70.33,371.278z M110.296,371.278H130.1h0.004h0.005h19.803v11.492h-19.803
							H130.1h-19.803V371.278L110.296,371.278z M150.262,371.278h19.803h0.004h0.005h19.803v11.492h-19.803h-0.009h-19.803V371.278
							L150.262,371.278z M190.229,371.278h19.803h0.005h0.005h19.803v11.492h-19.803h-0.01h-19.803V371.278L190.229,371.278z
							 M230.194,371.278h19.802h0.005h0.005h19.802v11.492h-19.802h-0.01h-19.802V371.278L230.194,371.278z M270.159,371.278h19.804
							h0.005h0.005h19.803v11.492h-19.803h-0.01h-19.804V371.278L270.159,371.278z M310.125,371.278h19.804h0.005h0.005h19.803
							v11.492h-19.803h-0.01h-19.804V371.278L310.125,371.278z M350.091,371.278h19.804h0.004h0.005h19.804v11.492h-19.804h-0.009
							h-19.804V371.278L350.091,371.278z M390.058,371.278h19.803h0.005h0.005h19.803v11.492H409.87h-0.01h-19.803V371.278
							L390.058,371.278z M430.023,371.278h19.803h0.005h0.005h19.804v11.492h-19.804h-0.01h-19.803V371.278L430.023,371.278z
							 M50.347,359.436h19.804h0.004h0.005h19.803v11.492H70.16h-0.009H50.347V359.436L50.347,359.436z M90.313,359.436h19.804
							h0.004h0.005h19.803v11.492h-19.803h-0.009H90.313V359.436L90.313,359.436z M130.279,359.436h19.803h0.005h0.004h19.803
							v11.492h-19.803h-0.009h-19.803V359.436L130.279,359.436z M170.245,359.436h19.803h0.005h0.005h19.803v11.492h-19.803h-0.01
							h-19.803V359.436L170.245,359.436z M210.211,359.436h19.803h0.005h0.005h19.803v11.492h-19.803h-0.01h-19.803V359.436
							L210.211,359.436z M250.177,359.436h19.803h0.003h0.006h19.803v11.492h-19.803h-0.009h-19.803V359.436L250.177,359.436z
							 M290.142,359.436h19.805h0.004h0.005h19.805v11.492h-19.805h-0.009h-19.805V359.436L290.142,359.436z M330.107,359.436
							h19.805h0.004h0.004h19.805v11.492H349.92h-0.008h-19.805V359.436L330.107,359.436z M370.073,359.436h19.805h0.004h0.005
							h19.804v11.492h-19.804h-0.009h-19.805V359.436L370.073,359.436z M410.04,359.436h19.805h0.003h0.005h19.804v11.492h-19.804
							h-0.008H410.04V359.436L410.04,359.436z M30.364,347.594h19.803h0.004h0.005H69.98v11.492H50.177h-0.009H30.364V347.594
							L30.364,347.594z M70.33,347.594h19.803h0.005h0.005h19.803v11.492H90.143h-0.01H70.33V347.594L70.33,347.594z
							 M110.296,347.594H130.1h0.004h0.005h19.803v11.492h-19.803H130.1h-19.803V347.594L110.296,347.594z M150.262,347.594h19.803
							h0.004h0.005h19.803v11.492h-19.803h-0.009h-19.803V347.594L150.262,347.594z M190.229,347.594h19.803h0.005h0.005h19.803
							v11.492h-19.803h-0.01h-19.803V347.594L190.229,347.594z M230.194,347.594h19.802h0.005h0.005h19.802v11.492h-19.802h-0.01
							h-19.802V347.594L230.194,347.594z M270.159,347.594h19.804h0.005h0.005h19.803v11.492h-19.803h-0.01h-19.804V347.594
							L270.159,347.594z M310.125,347.594h19.804h0.005h0.005h19.803v11.492h-19.803h-0.01h-19.804V347.594L310.125,347.594z
							 M350.091,347.594h19.804h0.004h0.005h19.804v11.492h-19.804h-0.009h-19.804V347.594L350.091,347.594z M390.058,347.594
							h19.803h0.005h0.005h19.803v11.492H409.87h-0.01h-19.803V347.594L390.058,347.594z M430.023,347.594h19.803h0.005h0.005
							h19.804v11.492h-19.804h-0.01h-19.803V347.594L430.023,347.594z M50.347,335.753h19.804h0.004h0.005h19.803v11.492H70.16
							h-0.009H50.347V335.753L50.347,335.753z M90.313,335.753h19.804h0.004h0.005h19.803v11.492h-19.803h-0.009H90.313V335.753
							L90.313,335.753z M130.279,335.753h19.803h0.005h0.004h19.803v11.492h-19.803h-0.009h-19.803V335.753L130.279,335.753z
							 M170.245,335.753h19.803h0.005h0.005h19.803v11.492h-19.803h-0.01h-19.803V335.753L170.245,335.753z M210.211,335.753h19.803
							h0.005h0.005h19.803v11.492h-19.803h-0.01h-19.803V335.753L210.211,335.753z M250.177,335.753h19.803h0.003h0.006h19.803
							v11.492h-19.803h-0.009h-19.803V335.753L250.177,335.753z M290.142,335.753h19.805h0.004h0.005h19.805v11.492h-19.805h-0.009
							h-19.805V335.753L290.142,335.753z M330.107,335.753h19.805h0.004h0.004h19.805v11.492H349.92h-0.008h-19.805V335.753
							L330.107,335.753z M370.073,335.753h19.805h0.004h0.005h19.804v11.492h-19.804h-0.009h-19.805V335.753L370.073,335.753z
							 M410.04,335.753h19.805h0.003h0.005h19.804v11.492h-19.804h-0.008H410.04V335.753L410.04,335.753z M30.364,323.911h19.803
							h0.004h0.005H69.98v11.492H50.177h-0.009H30.364V323.911L30.364,323.911z M70.33,323.911h19.803h0.005h0.005h19.803v11.492
							H90.143h-0.01H70.33V323.911L70.33,323.911z M110.296,323.911H130.1h0.004h0.005h19.803v11.492h-19.803H130.1h-19.803V323.911
							L110.296,323.911z M150.262,323.911h19.803h0.004h0.005h19.803v11.492h-19.803h-0.009h-19.803V323.911L150.262,323.911z
							 M190.229,323.911h19.803h0.005h0.005h19.803v11.492h-19.803h-0.01h-19.803V323.911L190.229,323.911z M230.194,323.911h19.802
							h0.005h0.005h19.802v11.492h-19.802h-0.01h-19.802V323.911L230.194,323.911z M270.159,323.911h19.804h0.005h0.005h19.803
							v11.492h-19.803h-0.01h-19.804V323.911L270.159,323.911z M310.125,323.911h19.804h0.005h0.005h19.803v11.492h-19.803h-0.01
							h-19.804V323.911L310.125,323.911z M350.091,323.911h19.804h0.004h0.005h19.804v11.492h-19.804h-0.009h-19.804V323.911
							L350.091,323.911z M390.058,323.911h19.803h0.005h0.005h19.803v11.492H409.87h-0.01h-19.803V323.911L390.058,323.911z
							 M430.023,323.911h19.803h0.005h0.005h19.804v11.492h-19.804h-0.01h-19.803V323.911L430.023,323.911z M50.347,312.07h19.804
							h0.004h0.005h19.803v11.49H70.16h-0.009H50.347V312.07L50.347,312.07z M90.313,312.07h19.804h0.004h0.005h19.803v11.49
							h-19.803h-0.009H90.313V312.07L90.313,312.07z M130.279,312.07h19.803h0.005h0.004h19.803v11.49h-19.803h-0.009h-19.803
							V312.07L130.279,312.07z M170.245,312.07h19.803h0.005h0.005h19.803v11.49h-19.803h-0.01h-19.803V312.07L170.245,312.07z
							 M210.211,312.07h19.803h0.005h0.005h19.803v11.49h-19.803h-0.01h-19.803V312.07L210.211,312.07z M250.177,312.07h19.803
							h0.003h0.006h19.803v11.49h-19.803h-0.009h-19.803V312.07L250.177,312.07z M290.142,312.07h19.805h0.004h0.005h19.805v11.49
							h-19.805h-0.009h-19.805V312.07L290.142,312.07z M330.107,312.07h19.805h0.004h0.004h19.805v11.49H349.92h-0.008h-19.805
							V312.07L330.107,312.07z M370.073,312.07h19.805h0.004h0.005h19.804v11.49h-19.804h-0.009h-19.805V312.07L370.073,312.07z
							 M410.04,312.07h19.805h0.003h0.005h19.804v11.49h-19.804h-0.008H410.04V312.07L410.04,312.07z M30.364,300.228h19.803h0.004
							h0.005H69.98v11.491H50.177h-0.009H30.364V300.228L30.364,300.228z M70.33,300.228h19.803h0.005h0.005h19.803v11.491H90.143
							h-0.01H70.33V300.228L70.33,300.228z M110.296,300.228H130.1h0.004h0.005h19.803v11.491h-19.803H130.1h-19.803V300.228
							L110.296,300.228z M150.262,300.228h19.803h0.004h0.005h19.803v11.491h-19.803h-0.009h-19.803V300.228L150.262,300.228z
							 M190.229,300.228h19.803h0.005h0.005h19.803v11.491h-19.803h-0.01h-19.803V300.228L190.229,300.228z M230.194,300.228h19.802
							h0.005h0.005h19.802v11.491h-19.802h-0.01h-19.802V300.228L230.194,300.228z M270.159,300.228h19.804h0.005h0.005h19.803
							v11.491h-19.803h-0.01h-19.804V300.228L270.159,300.228z M310.125,300.228h19.804h0.005h0.005h19.803v11.491h-19.803h-0.01
							h-19.804V300.228L310.125,300.228z M350.091,300.228h19.804h0.004h0.005h19.804v11.491h-19.804h-0.009h-19.804V300.228
							L350.091,300.228z M390.058,300.228h19.803h0.005h0.005h19.803v11.491H409.87h-0.01h-19.803V300.228L390.058,300.228z
							 M430.023,300.228h19.803h0.005h0.005h19.804v11.491h-19.804h-0.01h-19.803V300.228L430.023,300.228z M50.347,288.386h19.804
							h0.004h0.005h19.803v11.491H70.16h-0.009H50.347V288.386L50.347,288.386z M90.313,288.386h19.804h0.004h0.005h19.803v11.491
							h-19.803h-0.009H90.313V288.386L90.313,288.386z M130.279,288.386h19.803h0.005h0.004h19.803v11.491h-19.803h-0.009h-19.803
							V288.386L130.279,288.386z M170.245,288.386h19.803h0.005h0.005h19.803v11.491h-19.803h-0.01h-19.803V288.386L170.245,288.386
							z M210.211,288.386h19.803h0.005h0.005h19.803v11.491h-19.803h-0.01h-19.803V288.386L210.211,288.386z M250.177,288.386
							h19.803h0.003h0.006h19.803v11.491h-19.803h-0.009h-19.803V288.386L250.177,288.386z M290.142,288.386h19.805h0.004h0.005
							h19.805v11.491h-19.805h-0.009h-19.805V288.386L290.142,288.386z M330.107,288.386h19.805h0.004h0.004h19.805v11.491H349.92
							h-0.008h-19.805V288.386L330.107,288.386z M370.073,288.386h19.805h0.004h0.005h19.804v11.491h-19.804h-0.009h-19.805V288.386
							L370.073,288.386z M410.04,288.386h19.805h0.003h0.005h19.804v11.491h-19.804h-0.008H410.04V288.386L410.04,288.386z
							 M30.364,276.544h19.803h0.004h0.005H69.98v11.491H50.177h-0.009H30.364V276.544L30.364,276.544z M70.33,276.544h19.803h0.005
							h0.005h19.803v11.491H90.143h-0.01H70.33V276.544L70.33,276.544z M110.296,276.544H130.1h0.004h0.005h19.803v11.491h-19.803
							H130.1h-19.803V276.544L110.296,276.544z M150.262,276.544h19.803h0.004h0.005h19.803v11.491h-19.803h-0.009h-19.803V276.544
							L150.262,276.544z M190.229,276.544h19.803h0.005h0.005h19.803v11.491h-19.803h-0.01h-19.803V276.544L190.229,276.544z
							 M230.194,276.544h19.802h0.005h0.005h19.802v11.491h-19.802h-0.01h-19.802V276.544L230.194,276.544z M270.159,276.544h19.804
							h0.005h0.005h19.803v11.491h-19.803h-0.01h-19.804V276.544L270.159,276.544z M310.125,276.544h19.804h0.005h0.005h19.803
							v11.491h-19.803h-0.01h-19.804V276.544L310.125,276.544z M350.091,276.544h19.804h0.004h0.005h19.804v11.491h-19.804h-0.009
							h-19.804V276.544L350.091,276.544z M390.058,276.544h19.803h0.005h0.005h19.803v11.491H409.87h-0.01h-19.803V276.544
							L390.058,276.544z M430.023,276.544h19.803h0.005h0.005h19.804v11.491h-19.804h-0.01h-19.803V276.544L430.023,276.544z
							 M50.347,264.703h19.804h0.004h0.005h19.803v11.491H70.16h-0.009H50.347V264.703L50.347,264.703z M90.313,264.703h19.804
							h0.004h0.005h19.803v11.491h-19.803h-0.009H90.313V264.703L90.313,264.703z M130.279,264.703h19.803h0.005h0.004h19.803
							v11.491h-19.803h-0.009h-19.803V264.703L130.279,264.703z M170.245,264.703h19.803h0.005h0.005h19.803v11.491h-19.803h-0.01
							h-19.803V264.703L170.245,264.703z M210.211,264.703h19.803h0.005h0.005h19.803v11.491h-19.803h-0.01h-19.803V264.703
							L210.211,264.703z M250.177,264.703h19.803h0.003h0.006h19.803v11.491h-19.803h-0.009h-19.803V264.703L250.177,264.703z
							 M290.142,264.703h19.805h0.004h0.005h19.805v11.491h-19.805h-0.009h-19.805V264.703L290.142,264.703z M330.107,264.703
							h19.805h0.004h0.004h19.805v11.491H349.92h-0.008h-19.805V264.703L330.107,264.703z M370.073,264.703h19.805h0.004h0.005
							h19.804v11.491h-19.804h-0.009h-19.805V264.703L370.073,264.703z M410.04,264.703h19.805h0.003h0.005h19.804v11.491h-19.804
							h-0.008H410.04V264.703L410.04,264.703z M30.364,252.861h19.803h0.004h0.005H69.98v11.491H50.177h-0.009H30.364V252.861
							L30.364,252.861z M70.33,252.861h19.803h0.005h0.005h19.803v11.491H90.143h-0.01H70.33V252.861L70.33,252.861z
							 M110.296,252.861H130.1h0.004h0.005h19.803v11.491h-19.803H130.1h-19.803V252.861L110.296,252.861z M150.262,252.861h19.803
							h0.004h0.005h19.803v11.491h-19.803h-0.009h-19.803V252.861L150.262,252.861z M190.229,252.861h19.803h0.005h0.005h19.803
							v11.491h-19.803h-0.01h-19.803V252.861L190.229,252.861z M230.194,252.861h19.802h0.005h0.005h19.802v11.491h-19.802h-0.01
							h-19.802V252.861L230.194,252.861z M270.159,252.861h19.804h0.005h0.005h19.803v11.491h-19.803h-0.01h-19.804V252.861
							L270.159,252.861z M310.125,252.861h19.804h0.005h0.005h19.803v11.491h-19.803h-0.01h-19.804V252.861L310.125,252.861z
							 M350.091,252.861h19.804h0.004h0.005h19.804v11.491h-19.804h-0.009h-19.804V252.861L350.091,252.861z M390.058,252.861
							h19.803h0.005h0.005h19.803v11.491H409.87h-0.01h-19.803V252.861L390.058,252.861z M430.023,252.861h19.803h0.005h0.005
							h19.804v11.491h-19.804h-0.01h-19.803V252.861L430.023,252.861z M50.347,241.02h19.804h0.004h0.005h19.803v11.49H70.16h-0.009
							H50.347V241.02L50.347,241.02z M90.313,241.02h19.804h0.004h0.005h19.803v11.49h-19.803h-0.009H90.313V241.02L90.313,241.02z
							 M130.279,241.02h19.803h0.005h0.004h19.803v11.49h-19.803h-0.009h-19.803V241.02L130.279,241.02z M170.245,241.02h19.803
							h0.005h0.005h19.803v11.49h-19.803h-0.01h-19.803V241.02L170.245,241.02z M210.211,241.02h19.803h0.005h0.005h19.803v11.49
							h-19.803h-0.01h-19.803V241.02L210.211,241.02z M250.177,241.02h19.803h0.003h0.006h19.803v11.49h-19.803h-0.009h-19.803
							V241.02L250.177,241.02z M290.142,241.02h19.805h0.004h0.005h19.805v11.49h-19.805h-0.009h-19.805V241.02L290.142,241.02z
							 M330.107,241.02h19.805h0.004h0.004h19.805v11.49H349.92h-0.008h-19.805V241.02L330.107,241.02z M370.073,241.02h19.805
							h0.004h0.005h19.804v11.49h-19.804h-0.009h-19.805V241.02L370.073,241.02z M410.04,241.02h19.805h0.003h0.005h19.804v11.49
							h-19.804h-0.008H410.04V241.02L410.04,241.02z M30.364,229.178h19.803h0.004h0.005H69.98v11.491H50.177h-0.009H30.364V229.178
							L30.364,229.178z M70.33,229.178h19.803h0.005h0.005h19.803v11.491H90.143h-0.01H70.33V229.178L70.33,229.178z
							 M110.296,229.178H130.1h0.004h0.005h19.803v11.491h-19.803H130.1h-19.803V229.178L110.296,229.178z M150.262,229.178h19.803
							h0.004h0.005h19.803v11.491h-19.803h-0.009h-19.803V229.178L150.262,229.178z M190.229,229.178h19.803h0.005h0.005h19.803
							v11.491h-19.803h-0.01h-19.803V229.178L190.229,229.178z M230.194,229.178h19.802h0.005h0.005h19.802v11.491h-19.802h-0.01
							h-19.802V229.178L230.194,229.178z M270.159,229.178h19.804h0.005h0.005h19.803v11.491h-19.803h-0.01h-19.804V229.178
							L270.159,229.178z M310.125,229.178h19.804h0.005h0.005h19.803v11.491h-19.803h-0.01h-19.804V229.178L310.125,229.178z
							 M350.091,229.178h19.804h0.004h0.005h19.804v11.491h-19.804h-0.009h-19.804V229.178L350.091,229.178z M390.058,229.178
							h19.803h0.005h0.005h19.803v11.491H409.87h-0.01h-19.803V229.178L390.058,229.178z M430.023,229.178h19.803h0.005h0.005
							h19.804v11.491h-19.804h-0.01h-19.803V229.178L430.023,229.178z M50.347,217.337h19.804h0.004h0.005h19.803v11.491H70.16
							h-0.009H50.347V217.337L50.347,217.337z M90.313,217.337h19.804h0.004h0.005h19.803v11.491h-19.803h-0.009H90.313V217.337
							L90.313,217.337z M130.279,217.337h19.803h0.005h0.004h19.803v11.491h-19.803h-0.009h-19.803V217.337L130.279,217.337z
							 M170.245,217.337h19.803h0.005h0.005h19.803v11.491h-19.803h-0.01h-19.803V217.337L170.245,217.337z M210.211,217.337h19.803
							h0.005h0.005h19.803v11.491h-19.803h-0.01h-19.803V217.337L210.211,217.337z M250.177,217.337h19.803h0.003h0.006h19.803
							v11.491h-19.803h-0.009h-19.803V217.337L250.177,217.337z M290.142,217.337h19.805h0.004h0.005h19.805v11.491h-19.805h-0.009
							h-19.805V217.337L290.142,217.337z M330.107,217.337h19.805h0.004h0.004h19.805v11.491H349.92h-0.008h-19.805V217.337
							L330.107,217.337z M370.073,217.337h19.805h0.004h0.005h19.804v11.491h-19.804h-0.009h-19.805V217.337L370.073,217.337z
							 M410.04,217.337h19.805h0.003h0.005h19.804v11.491h-19.804h-0.008H410.04V217.337L410.04,217.337z M30.364,205.495h19.803
							h0.004h0.005H69.98v11.492H50.177h-0.009H30.364V205.495L30.364,205.495z M70.33,205.495h19.803h0.005h0.005h19.803v11.492
							H90.143h-0.01H70.33V205.495L70.33,205.495z M110.296,205.495H130.1h0.004h0.005h19.803v11.492h-19.803H130.1h-19.803V205.495
							L110.296,205.495z M150.262,205.495h19.803h0.004h0.005h19.803v11.492h-19.803h-0.009h-19.803V205.495L150.262,205.495z
							 M190.229,205.495h19.803h0.005h0.005h19.803v11.492h-19.803h-0.01h-19.803V205.495L190.229,205.495z M230.194,205.495h19.802
							h0.005h0.005h19.802v11.492h-19.802h-0.01h-19.802V205.495L230.194,205.495z M270.159,205.495h19.804h0.005h0.005h19.803
							v11.492h-19.803h-0.01h-19.804V205.495L270.159,205.495z M310.125,205.495h19.804h0.005h0.005h19.803v11.492h-19.803h-0.01
							h-19.804V205.495L310.125,205.495z M350.091,205.495h19.804h0.004h0.005h19.804v11.492h-19.804h-0.009h-19.804V205.495
							L350.091,205.495z M390.058,205.495h19.803h0.005h0.005h19.803v11.492H409.87h-0.01h-19.803V205.495L390.058,205.495z
							 M430.023,205.495h19.803h0.005h0.005h19.804v11.492h-19.804h-0.01h-19.803V205.495L430.023,205.495z M50.347,193.653h19.804
							h0.004h0.005h19.803v11.492H70.16h-0.009H50.347V193.653L50.347,193.653z M90.313,193.653h19.804h0.004h0.005h19.803v11.492
							h-19.803h-0.009H90.313V193.653L90.313,193.653z M130.279,193.653h19.803h0.005h0.004h19.803v11.492h-19.803h-0.009h-19.803
							V193.653L130.279,193.653z M170.245,193.653h19.803h0.005h0.005h19.803v11.492h-19.803h-0.01h-19.803V193.653L170.245,193.653
							z M210.211,193.653h19.803h0.005h0.005h19.803v11.492h-19.803h-0.01h-19.803V193.653L210.211,193.653z M250.177,193.653
							h19.803h0.003h0.006h19.803v11.492h-19.803h-0.009h-19.803V193.653L250.177,193.653z M290.142,193.653h19.805h0.004h0.005
							h19.805v11.492h-19.805h-0.009h-19.805V193.653L290.142,193.653z M330.107,193.653h19.805h0.004h0.004h19.805v11.492H349.92
							h-0.008h-19.805V193.653L330.107,193.653z M370.073,193.653h19.805h0.004h0.005h19.804v11.492h-19.804h-0.009h-19.805V193.653
							L370.073,193.653z M410.04,193.653h19.805h0.003h0.005h19.804v11.492h-19.804h-0.008H410.04V193.653L410.04,193.653z
							 M30.364,181.811h19.803h0.004h0.005H69.98v11.491H50.177h-0.009H30.364V181.811L30.364,181.811z M70.33,181.811h19.803h0.005
							h0.005h19.803v11.491H90.143h-0.01H70.33V181.811L70.33,181.811z M110.296,181.811H130.1h0.004h0.005h19.803v11.491h-19.803
							H130.1h-19.803V181.811L110.296,181.811z M150.262,181.811h19.803h0.004h0.005h19.803v11.491h-19.803h-0.009h-19.803V181.811
							L150.262,181.811z M190.229,181.811h19.803h0.005h0.005h19.803v11.491h-19.803h-0.01h-19.803V181.811L190.229,181.811z
							 M230.194,181.811h19.802h0.005h0.005h19.802v11.491h-19.802h-0.01h-19.802V181.811L230.194,181.811z M270.159,181.811h19.804
							h0.005h0.005h19.803v11.491h-19.803h-0.01h-19.804V181.811L270.159,181.811z M310.125,181.811h19.804h0.005h0.005h19.803
							v11.491h-19.803h-0.01h-19.804V181.811L310.125,181.811z M350.091,181.811h19.804h0.004h0.005h19.804v11.491h-19.804h-0.009
							h-19.804V181.811L350.091,181.811z M390.058,181.811h19.803h0.005h0.005h19.803v11.491H409.87h-0.01h-19.803V181.811
							L390.058,181.811z M430.023,181.811h19.803h0.005h0.005h19.804v11.491h-19.804h-0.01h-19.803V181.811L430.023,181.811z
							 M50.347,169.97h19.804h0.004h0.005h19.803v11.491H70.16h-0.009H50.347V169.97L50.347,169.97z M90.313,169.97h19.804h0.004
							h0.005h19.803v11.491h-19.803h-0.009H90.313V169.97L90.313,169.97z M130.279,169.97h19.803h0.005h0.004h19.803v11.491h-19.803
							h-0.009h-19.803V169.97L130.279,169.97z M170.245,169.97h19.803h0.005h0.005h19.803v11.491h-19.803h-0.01h-19.803V169.97
							L170.245,169.97z M210.211,169.97h19.803h0.005h0.005h19.803v11.491h-19.803h-0.01h-19.803V169.97L210.211,169.97z
							 M250.177,169.97h19.803h0.003h0.006h19.803v11.491h-19.803h-0.009h-19.803V169.97L250.177,169.97z M290.142,169.97h19.805
							h0.004h0.005h19.805v11.491h-19.805h-0.009h-19.805V169.97L290.142,169.97z M330.107,169.97h19.805h0.004h0.004h19.805v11.491
							H349.92h-0.008h-19.805V169.97L330.107,169.97z M370.073,169.97h19.805h0.004h0.005h19.804v11.491h-19.804h-0.009h-19.805
							V169.97L370.073,169.97z M410.04,169.97h19.805h0.003h0.005h19.804v11.491h-19.804h-0.008H410.04V169.97L410.04,169.97z
							 M30.364,158.128h19.803h0.004h0.005H69.98v11.492H50.177h-0.009H30.364V158.128L30.364,158.128z M70.33,158.128h19.803h0.005
							h0.005h19.803v11.492H90.143h-0.01H70.33V158.128L70.33,158.128z M110.296,158.128H130.1h0.004h0.005h19.803v11.492h-19.803
							H130.1h-19.803V158.128L110.296,158.128z M150.262,158.128h19.803h0.004h0.005h19.803v11.492h-19.803h-0.009h-19.803V158.128
							L150.262,158.128z M190.229,158.128h19.803h0.005h0.005h19.803v11.492h-19.803h-0.01h-19.803V158.128L190.229,158.128z
							 M230.194,158.128h19.802h0.005h0.005h19.802v11.492h-19.802h-0.01h-19.802V158.128L230.194,158.128z M270.159,158.128h19.804
							h0.005h0.005h19.803v11.492h-19.803h-0.01h-19.804V158.128L270.159,158.128z M310.125,158.128h19.804h0.005h0.005h19.803
							v11.492h-19.803h-0.01h-19.804V158.128L310.125,158.128z M350.091,158.128h19.804h0.004h0.005h19.804v11.492h-19.804h-0.009
							h-19.804V158.128L350.091,158.128z M390.058,158.128h19.803h0.005h0.005h19.803v11.492H409.87h-0.01h-19.803V158.128
							L390.058,158.128z M430.023,158.128h19.803h0.005h0.005h19.804v11.492h-19.804h-0.01h-19.803V158.128L430.023,158.128z
							 M50.347,146.287h19.804h0.004h0.005h19.803v11.493H70.16h-0.009H50.347V146.287L50.347,146.287z M90.313,146.287h19.804
							h0.004h0.005h19.803v11.493h-19.803h-0.009H90.313V146.287L90.313,146.287z M130.279,146.287h19.803h0.005h0.004h19.803
							v11.493h-19.803h-0.009h-19.803V146.287L130.279,146.287z M170.245,146.287h19.803h0.005h0.005h19.803v11.493h-19.803h-0.01
							h-19.803V146.287L170.245,146.287z M210.211,146.287h19.803h0.005h0.005h19.803v11.493h-19.803h-0.01h-19.803V146.287
							L210.211,146.287z M250.177,146.287h19.803h0.003h0.006h19.803v11.493h-19.803h-0.009h-19.803V146.287L250.177,146.287z
							 M290.142,146.287h19.805h0.004h0.005h19.805v11.493h-19.805h-0.009h-19.805V146.287L290.142,146.287z M330.107,146.287
							h19.805h0.004h0.004h19.805v11.493H349.92h-0.008h-19.805V146.287L330.107,146.287z M370.073,146.287h19.805h0.004h0.005
							h19.804v11.493h-19.804h-0.009h-19.805V146.287L370.073,146.287z M410.04,146.287h19.805h0.003h0.005h19.804v11.493h-19.804
							h-0.008H410.04V146.287L410.04,146.287z M30.364,134.445h19.803h0.004h0.005H69.98v11.492H50.177h-0.009H30.364V134.445
							L30.364,134.445z M70.33,134.445h19.803h0.005h0.005h19.803v11.492H90.143h-0.01H70.33V134.445L70.33,134.445z
							 M110.296,134.445H130.1h0.004h0.005h19.803v11.492h-19.803H130.1h-19.803V134.445L110.296,134.445z M150.262,134.445h19.803
							h0.004h0.005h19.803v11.492h-19.803h-0.009h-19.803V134.445L150.262,134.445z M190.229,134.445h19.803h0.005h0.005h19.803
							v11.492h-19.803h-0.01h-19.803V134.445L190.229,134.445z M230.194,134.445h19.802h0.005h0.005h19.802v11.492h-19.802h-0.01
							h-19.802V134.445L230.194,134.445z M270.159,134.445h19.804h0.005h0.005h19.803v11.492h-19.803h-0.01h-19.804V134.445
							L270.159,134.445z M310.125,134.445h19.804h0.005h0.005h19.803v11.492h-19.803h-0.01h-19.804V134.445L310.125,134.445z
							 M350.091,134.445h19.804h0.004h0.005h19.804v11.492h-19.804h-0.009h-19.804V134.445L350.091,134.445z M390.058,134.445
							h19.803h0.005h0.005h19.803v11.492H409.87h-0.01h-19.803V134.445L390.058,134.445z M430.023,134.445h19.803h0.005h0.005
							h19.804v11.492h-19.804h-0.01h-19.803V134.445L430.023,134.445z M50.347,122.604h19.804h0.004h0.005h19.803v11.492H70.16
							h-0.009H50.347V122.604L50.347,122.604z M90.313,122.604h19.804h0.004h0.005h19.803v11.492h-19.803h-0.009H90.313V122.604
							L90.313,122.604z M130.279,122.604h19.803h0.005h0.004h19.803v11.492h-19.803h-0.009h-19.803V122.604L130.279,122.604z
							 M170.245,122.604h19.803h0.005h0.005h19.803v11.492h-19.803h-0.01h-19.803V122.604L170.245,122.604z M210.211,122.604h19.803
							h0.005h0.005h19.803v11.492h-19.803h-0.01h-19.803V122.604L210.211,122.604z M250.177,122.604h19.803h0.003h0.006h19.803
							v11.492h-19.803h-0.009h-19.803V122.604L250.177,122.604z M290.142,122.604h19.805h0.004h0.005h19.805v11.492h-19.805h-0.009
							h-19.805V122.604L290.142,122.604z M330.107,122.604h19.805h0.004h0.004h19.805v11.492H349.92h-0.008h-19.805V122.604
							L330.107,122.604z M370.073,122.604h19.805h0.004h0.005h19.804v11.492h-19.804h-0.009h-19.805V122.604L370.073,122.604z
							 M410.04,122.604h19.805h0.003h0.005h19.804v11.492h-19.804h-0.008H410.04V122.604L410.04,122.604z M30.364,110.762h19.803
							h0.004h0.005H69.98v11.492H50.177h-0.009H30.364V110.762L30.364,110.762z M70.33,110.762h19.803h0.005h0.005h19.803v11.492
							H90.143h-0.01H70.33V110.762L70.33,110.762z M110.296,110.762H130.1h0.004h0.005h19.803v11.492h-19.803H130.1h-19.803V110.762
							L110.296,110.762z M150.262,110.762h19.803h0.004h0.005h19.803v11.492h-19.803h-0.009h-19.803V110.762L150.262,110.762z
							 M190.229,110.762h19.803h0.005h0.005h19.803v11.492h-19.803h-0.01h-19.803V110.762L190.229,110.762z M230.194,110.762h19.802
							h0.005h0.005h19.802v11.492h-19.802h-0.01h-19.802V110.762L230.194,110.762z M270.159,110.762h19.804h0.005h0.005h19.803
							v11.492h-19.803h-0.01h-19.804V110.762L270.159,110.762z M310.125,110.762h19.804h0.005h0.005h19.803v11.492h-19.803h-0.01
							h-19.804V110.762L310.125,110.762z M350.091,110.762h19.804h0.004h0.005h19.804v11.492h-19.804h-0.009h-19.804V110.762
							L350.091,110.762z M390.058,110.762h19.803h0.005h0.005h19.803v11.492H409.87h-0.01h-19.803V110.762L390.058,110.762z
							 M430.023,110.762h19.803h0.005h0.005h19.804v11.492h-19.804h-0.01h-19.803V110.762L430.023,110.762z M50.347,98.92h19.804
							h0.004h0.005h19.803v11.492H70.16h-0.009H50.347V98.92L50.347,98.92z M90.313,98.92h19.804h0.004h0.005h19.803v11.492h-19.803
							h-0.009H90.313V98.92L90.313,98.92z M130.279,98.92h19.803h0.005h0.004h19.803v11.492h-19.803h-0.009h-19.803V98.92
							L130.279,98.92z M170.245,98.92h19.803h0.005h0.005h19.803v11.492h-19.803h-0.01h-19.803V98.92L170.245,98.92z M210.211,98.92
							h19.803h0.005h0.005h19.803v11.492h-19.803h-0.01h-19.803V98.92L210.211,98.92z M250.177,98.92h19.803h0.003h0.006h19.803
							v11.492h-19.803h-0.009h-19.803V98.92L250.177,98.92z M290.142,98.92h19.805h0.004h0.005h19.805v11.492h-19.805h-0.009
							h-19.805V98.92L290.142,98.92z M330.107,98.92h19.805h0.004h0.004h19.805v11.492H349.92h-0.008h-19.805V98.92L330.107,98.92z
							 M370.073,98.92h19.805h0.004h0.005h19.804v11.492h-19.804h-0.009h-19.805V98.92L370.073,98.92z M410.04,98.92h19.805h0.003
							h0.005h19.804v11.492h-19.804h-0.008H410.04V98.92L410.04,98.92z M30.364,87.079h19.803h0.004h0.005H69.98V98.57H50.177
							h-0.009H30.364V87.079L30.364,87.079z M70.33,87.079h19.803h0.005h0.005h19.803V98.57H90.143h-0.01H70.33V87.079L70.33,87.079
							z M110.296,87.079H130.1h0.004h0.005h19.803V98.57h-19.803H130.1h-19.803V87.079L110.296,87.079z M150.262,87.079h19.803
							h0.004h0.005h19.803V98.57h-19.803h-0.009h-19.803V87.079L150.262,87.079z M190.229,87.079h19.803h0.005h0.005h19.803V98.57
							h-19.803h-0.01h-19.803V87.079L190.229,87.079z M230.194,87.079h19.802h0.005h0.005h19.802V98.57h-19.802h-0.01h-19.802
							V87.079L230.194,87.079z M270.159,87.079h19.804h0.005h0.005h19.803V98.57h-19.803h-0.01h-19.804V87.079L270.159,87.079z
							 M310.125,87.079h19.804h0.005h0.005h19.803V98.57h-19.803h-0.01h-19.804V87.079L310.125,87.079z M350.091,87.079h19.804
							h0.004h0.005h19.804V98.57h-19.804h-0.009h-19.804V87.079L350.091,87.079z M390.058,87.079h19.803h0.005h0.005h19.803V98.57
							H409.87h-0.01h-19.803V87.079L390.058,87.079z M430.023,87.079h19.803h0.005h0.005h19.804V98.57h-19.804h-0.01h-19.803V87.079
							L430.023,87.079z M50.347,75.237h19.804h0.004h0.005h19.803v11.492H70.16h-0.009H50.347V75.237L50.347,75.237z M90.313,75.237
							h19.804h0.004h0.005h19.803v11.492h-19.803h-0.009H90.313V75.237L90.313,75.237z M130.279,75.237h19.803h0.005h0.004h19.803
							v11.492h-19.803h-0.009h-19.803V75.237L130.279,75.237z M170.245,75.237h19.803h0.005h0.005h19.803v11.492h-19.803h-0.01
							h-19.803V75.237L170.245,75.237z M210.211,75.237h19.803h0.005h0.005h19.803v11.492h-19.803h-0.01h-19.803V75.237
							L210.211,75.237z M250.177,75.237h19.803h0.003h0.006h19.803v11.492h-19.803h-0.009h-19.803V75.237L250.177,75.237z
							 M290.142,75.237h19.805h0.004h0.005h19.805v11.492h-19.805h-0.009h-19.805V75.237L290.142,75.237z M330.107,75.237h19.805
							h0.004h0.004h19.805v11.492H349.92h-0.008h-19.805V75.237L330.107,75.237z M370.073,75.237h19.805h0.004h0.005h19.804v11.492
							h-19.804h-0.009h-19.805V75.237L370.073,75.237z M410.04,75.237h19.805h0.003h0.005h19.804v11.492h-19.804h-0.008H410.04
							V75.237L410.04,75.237z M30.364,63.395h19.803h0.004h0.005H69.98v11.492H50.177h-0.009H30.364V63.395L30.364,63.395z
							 M70.33,63.395h19.803h0.005h0.005h19.803v11.492H90.143h-0.01H70.33V63.395L70.33,63.395z M110.296,63.395H130.1h0.004h0.005
							h19.803v11.492h-19.803H130.1h-19.803V63.395L110.296,63.395z M150.262,63.395h19.803h0.004h0.005h19.803v11.492h-19.803
							h-0.009h-19.803V63.395L150.262,63.395z M190.229,63.395h19.803h0.005h0.005h19.803v11.492h-19.803h-0.01h-19.803V63.395
							L190.229,63.395z M230.194,63.395h19.802h0.005h0.005h19.802v11.492h-19.802h-0.01h-19.802V63.395L230.194,63.395z
							 M270.159,63.395h19.804h0.005h0.005h19.803v11.492h-19.803h-0.01h-19.804V63.395L270.159,63.395z M310.125,63.395h19.804
							h0.005h0.005h19.803v11.492h-19.803h-0.01h-19.804V63.395L310.125,63.395z M350.091,63.395h19.804h0.004h0.005h19.804v11.492
							h-19.804h-0.009h-19.804V63.395L350.091,63.395z M390.058,63.395h19.803h0.005h0.005h19.803v11.492H409.87h-0.01h-19.803
							V63.395L390.058,63.395z M430.023,63.395h19.803h0.005h0.005h19.804v11.492h-19.804h-0.01h-19.803V63.395L430.023,63.395z
							 M50.347,51.553h19.804h0.004h0.005h19.803v11.492H70.16h-0.009H50.347V51.553L50.347,51.553z M90.313,51.553h19.804h0.004
							h0.005h19.803v11.492h-19.803h-0.009H90.313V51.553L90.313,51.553z M130.279,51.553h19.803h0.005h0.004h19.803v11.492h-19.803
							h-0.009h-19.803V51.553L130.279,51.553z M170.245,51.553h19.803h0.005h0.005h19.803v11.492h-19.803h-0.01h-19.803V51.553
							L170.245,51.553z M210.211,51.553h19.803h0.005h0.005h19.803v11.492h-19.803h-0.01h-19.803V51.553L210.211,51.553z
							 M250.177,51.553h19.803h0.003h0.006h19.803v11.492h-19.803h-0.009h-19.803V51.553L250.177,51.553z M290.142,51.553h19.805
							h0.004h0.005h19.805v11.492h-19.805h-0.009h-19.805V51.553L290.142,51.553z M330.107,51.553h19.805h0.004h0.004h19.805v11.492
							H349.92h-0.008h-19.805V51.553L330.107,51.553z M370.073,51.553h19.805h0.004h0.005h19.804v11.492h-19.804h-0.009h-19.805
							V51.553L370.073,51.553z M410.04,51.553h19.805h0.003h0.005h19.804v11.492h-19.804h-0.008H410.04V51.553L410.04,51.553z
							 M30.364,39.711h19.803h0.004h0.005H69.98v11.493H50.177h-0.009H30.364V39.711L30.364,39.711z M70.33,39.711h19.803h0.005
							h0.005h19.803v11.493H90.143h-0.01H70.33V39.711L70.33,39.711z M110.296,39.711H130.1h0.004h0.005h19.803v11.493h-19.803
							H130.1h-19.803V39.711L110.296,39.711z M150.262,39.711h19.803h0.004h0.005h19.803v11.493h-19.803h-0.009h-19.803V39.711
							L150.262,39.711z M190.229,39.711h19.803h0.005h0.005h19.803v11.493h-19.803h-0.01h-19.803V39.711L190.229,39.711z
							 M230.194,39.711h19.802h0.005h0.005h19.802v11.493h-19.802h-0.01h-19.802V39.711L230.194,39.711z M270.159,39.711h19.804
							h0.005h0.005h19.803v11.493h-19.803h-0.01h-19.804V39.711L270.159,39.711z M310.125,39.711h19.804h0.005h0.005h19.803v11.493
							h-19.803h-0.01h-19.804V39.711L310.125,39.711z M350.091,39.711h19.804h0.004h0.005h19.804v11.493h-19.804h-0.009h-19.804
							V39.711L350.091,39.711z M390.058,39.711h19.803h0.005h0.005h19.803v11.493H409.87h-0.01h-19.803V39.711L390.058,39.711z
							 M430.023,39.711h19.803h0.005h0.005h19.804v11.493h-19.804h-0.01h-19.803V39.711L430.023,39.711z M50.347,27.87h19.804h0.004
							h0.005h19.803v11.493H70.16h-0.009H50.347V27.87L50.347,27.87z M90.313,27.87h19.804h0.004h0.005h19.803v11.493h-19.803
							h-0.009H90.313V27.87L90.313,27.87z M130.279,27.87h19.803h0.005h0.004h19.803v11.493h-19.803h-0.009h-19.803V27.87
							L130.279,27.87z M170.245,27.87h19.803h0.005h0.005h19.803v11.493h-19.803h-0.01h-19.803V27.87L170.245,27.87z M210.211,27.87
							h19.803h0.005h0.005h19.803v11.493h-19.803h-0.01h-19.803V27.87L210.211,27.87z M250.177,27.87h19.803h0.003h0.006h19.803
							v11.493h-19.803h-0.009h-19.803V27.87L250.177,27.87z M290.142,27.87h19.805h0.004h0.005h19.805v11.493h-19.805h-0.009
							h-19.805V27.87L290.142,27.87z M330.107,27.87h19.805h0.004h0.004h19.805v11.493H349.92h-0.008h-19.805V27.87L330.107,27.87z
							 M370.073,27.87h19.805h0.004h0.005h19.804v11.493h-19.804h-0.009h-19.805V27.87L370.073,27.87z M410.04,27.87h19.805h0.003
							h0.005h19.804v11.493h-19.804h-0.008H410.04V27.87L410.04,27.87z M30.364,16.028h19.803h0.004h0.005H69.98v11.492H50.177
							h-0.009H30.364V16.028L30.364,16.028z M70.33,16.028h19.803h0.005h0.005h19.803v11.492H90.143h-0.01H70.33V16.028
							L70.33,16.028z M110.296,16.028H130.1h0.004h0.005h19.803v11.492h-19.803H130.1h-19.803V16.028L110.296,16.028z
							 M150.262,16.028h19.803h0.004h0.005h19.803v11.492h-19.803h-0.009h-19.803V16.028L150.262,16.028z M190.229,16.028h19.803
							h0.005h0.005h19.803v11.492h-19.803h-0.01h-19.803V16.028L190.229,16.028z M230.194,16.028h19.802h0.005h0.005h19.802v11.492
							h-19.802h-0.01h-19.802V16.028L230.194,16.028z M270.159,16.028h19.804h0.005h0.005h19.803v11.492h-19.803h-0.01h-19.804
							V16.028L270.159,16.028z M310.125,16.028h19.804h0.005h0.005h19.803v11.492h-19.803h-0.01h-19.804V16.028L310.125,16.028z
							 M350.091,16.028h19.804h0.004h0.005h19.804v11.492h-19.804h-0.009h-19.804V16.028L350.091,16.028z M390.058,16.028h19.803
							h0.005h0.005h19.803v11.492H409.87h-0.01h-19.803V16.028L390.058,16.028z M430.023,16.028h19.803h0.005h0.005h19.804v11.492
							h-19.804h-0.01h-19.803V16.028L430.023,16.028z M50.347,4.188h19.804h0.004h0.005h19.803v11.491H70.16h-0.009H50.347V4.188
							L50.347,4.188z M90.313,4.188h19.804h0.004h0.005h19.803v11.491h-19.803h-0.009H90.313V4.188L90.313,4.188z M130.279,4.188
							h19.803h0.005h0.004h19.803v11.491h-19.803h-0.009h-19.803V4.188L130.279,4.188z M170.245,4.188h19.803h0.005h0.005h19.803
							v11.491h-19.803h-0.01h-19.803V4.188L170.245,4.188z M210.211,4.188h19.803h0.005h0.005h19.803v11.491h-19.803h-0.01h-19.803
							V4.188L210.211,4.188z M250.177,4.188h19.803h0.003h0.006h19.803v11.491h-19.803h-0.009h-19.803V4.188L250.177,4.188z
							 M290.142,4.188h19.805h0.004h0.005h19.805v11.491h-19.805h-0.009h-19.805V4.188L290.142,4.188z M330.107,4.188h19.805h0.004
							h0.004h19.805v11.491H349.92h-0.008h-19.805V4.188L330.107,4.188z M370.073,4.188h19.805h0.004h0.005h19.804v11.491h-19.804
							h-0.009h-19.805V4.188L370.073,4.188z M410.04,4.188h19.805h0.003h0.005h19.804v11.491h-19.804h-0.008H410.04V4.188
							L410.04,4.188z M30.364-7.654h19.803h0.004h0.005H69.98V3.837H50.177h-0.009H30.364V-7.654L30.364-7.654z M70.33-7.654h19.803
							h0.005h0.005h19.803V3.837H90.143h-0.01H70.33V-7.654L70.33-7.654z M110.296-7.654H130.1h0.004h0.005h19.803V3.837h-19.803
							H130.1h-19.803V-7.654L110.296-7.654z M150.262-7.654h19.803h0.004h0.005h19.803V3.837h-19.803h-0.009h-19.803V-7.654
							L150.262-7.654z M190.229-7.654h19.803h0.005h0.005h19.803V3.837h-19.803h-0.01h-19.803V-7.654L190.229-7.654z M230.194-7.654
							h19.802h0.005h0.005h19.802V3.837h-19.802h-0.01h-19.802V-7.654L230.194-7.654z M270.159-7.654h19.804h0.005h0.005h19.803
							V3.837h-19.803h-0.01h-19.804V-7.654L270.159-7.654z M310.125-7.654h19.804h0.005h0.005h19.803V3.837h-19.803h-0.01h-19.804
							V-7.654L310.125-7.654z M350.091-7.654h19.804h0.004h0.005h19.804V3.837h-19.804h-0.009h-19.804V-7.654L350.091-7.654z
							 M390.058-7.654h19.803h0.005h0.005h19.803V3.837H409.87h-0.01h-19.803V-7.654L390.058-7.654z M430.023-7.654h19.803h0.005
							h0.005h19.804V3.837h-19.804h-0.01h-19.803V-7.654L430.023-7.654z M50.347-19.497h19.804h0.004h0.005h19.803v11.492H70.16
							h-0.009H50.347V-19.497L50.347-19.497z M90.313-19.497h19.804h0.004h0.005h19.803v11.492h-19.803h-0.009H90.313V-19.497
							L90.313-19.497z M130.279-19.497h19.803h0.005h0.004h19.803v11.492h-19.803h-0.009h-19.803V-19.497L130.279-19.497z
							 M170.245-19.497h19.803h0.005h0.005h19.803v11.492h-19.803h-0.01h-19.803V-19.497L170.245-19.497z M210.211-19.497h19.803
							h0.005h0.005h19.803v11.492h-19.803h-0.01h-19.803V-19.497L210.211-19.497z M250.177-19.497h19.803h0.003h0.006h19.803v11.492
							h-19.803h-0.009h-19.803V-19.497L250.177-19.497z M290.142-19.497h19.805h0.004h0.005h19.805v11.492h-19.805h-0.009h-19.805
							V-19.497L290.142-19.497z M330.107-19.497h19.805h0.004h0.004h19.805v11.492H349.92h-0.008h-19.805V-19.497L330.107-19.497z
							 M370.073-19.497h19.805h0.004h0.005h19.804v11.492h-19.804h-0.009h-19.805V-19.497L370.073-19.497z M410.04-19.497h19.805
							h0.003h0.005h19.804v11.492h-19.804h-0.008H410.04V-19.497L410.04-19.497z M30.364-31.337h19.803h0.004h0.005H69.98v11.491
							H50.177h-0.009H30.364V-31.337L30.364-31.337z M70.33-31.337h19.803h0.005h0.005h19.803v11.491H90.143h-0.01H70.33V-31.337
							L70.33-31.337z M110.296-31.337H130.1h0.004h0.005h19.803v11.491h-19.803H130.1h-19.803V-31.337L110.296-31.337z
							 M150.262-31.337h19.803h0.004h0.005h19.803v11.491h-19.803h-0.009h-19.803V-31.337L150.262-31.337z M190.229-31.337h19.803
							h0.005h0.005h19.803v11.491h-19.803h-0.01h-19.803V-31.337L190.229-31.337z M230.194-31.337h19.802h0.005h0.005h19.802v11.491
							h-19.802h-0.01h-19.802V-31.337L230.194-31.337z M270.159-31.337h19.804h0.005h0.005h19.803v11.491h-19.803h-0.01h-19.804
							V-31.337L270.159-31.337z M310.125-31.337h19.804h0.005h0.005h19.803v11.491h-19.803h-0.01h-19.804V-31.337L310.125-31.337z
							 M350.091-31.337h19.804h0.004h0.005h19.804v11.491h-19.804h-0.009h-19.804V-31.337L350.091-31.337z M390.058-31.337h19.803
							h0.005h0.005h19.803v11.491H409.87h-0.01h-19.803V-31.337L390.058-31.337z M430.023-31.337h19.803h0.005h0.005h19.804v11.491
							h-19.804h-0.01h-19.803V-31.337L430.023-31.337z M50.347-43.179h19.804h0.004h0.005h19.803v11.491H70.16h-0.009H50.347
							V-43.179L50.347-43.179z M90.313-43.179h19.804h0.004h0.005h19.803v11.491h-19.803h-0.009H90.313V-43.179L90.313-43.179z
							 M130.279-43.179h19.803h0.005h0.004h19.803v11.491h-19.803h-0.009h-19.803V-43.179L130.279-43.179z M170.245-43.179h19.803
							h0.005h0.005h19.803v11.491h-19.803h-0.01h-19.803V-43.179L170.245-43.179z M210.211-43.179h19.803h0.005h0.005h19.803v11.491
							h-19.803h-0.01h-19.803V-43.179L210.211-43.179z M250.177-43.179h19.803h0.003h0.006h19.803v11.491h-19.803h-0.009h-19.803
							V-43.179L250.177-43.179z M290.142-43.179h19.805h0.004h0.005h19.805v11.491h-19.805h-0.009h-19.805V-43.179L290.142-43.179z
							 M330.107-43.179h19.805h0.004h0.004h19.805v11.491H349.92h-0.008h-19.805V-43.179L330.107-43.179z M370.073-43.179h19.805
							h0.004h0.005h19.804v11.491h-19.804h-0.009h-19.805V-43.179L370.073-43.179z M410.04-43.179h19.805h0.003h0.005h19.804v11.491
							h-19.804h-0.008H410.04V-43.179z"/>
					</g>
				</g>
			</g>
			<path style="fill-rule:evenodd;clip-rule:evenodd;fill:#E6F1FA;" d="M466.376,319.445c-2.188-10.982-6.691-21.155-12.982-29.981
				H31.996c2.778,14.923,13.499,28.152,32.177,29.981H466.376z"/>
		</g>
		<g>
			<path style="fill-rule:evenodd;clip-rule:evenodd;fill:#78A4CA;" d="M438.588,335.985h-28.234c-1.682,0-3.058,1.375-3.058,3.057
				v28.234c0,1.681,1.376,3.057,3.058,3.057h28.234c1.68,0,3.057-1.376,3.057-3.057v-28.234
				C441.645,337.36,440.268,335.985,438.588,335.985z"/>
			<path style="fill-rule:evenodd;clip-rule:evenodd;fill:#FFFFFF;" d="M436.768,335.985h-28.234c-1.681,0-3.056,1.375-3.056,3.057
				v28.234c0,1.681,1.375,3.057,3.056,3.057h28.234c1.682,0,3.057-1.376,3.057-3.057v-28.234
				C439.824,337.36,438.449,335.985,436.768,335.985z"/>
			<path style="fill-rule:evenodd;clip-rule:evenodd;fill:#DEECF3;" d="M431.982,341.806H413.32c-1.111,0-2.021,0.91-2.021,2.02
				v18.663c0,1.11,0.909,2.018,2.021,2.018h18.662c1.111,0,2.021-0.908,2.021-2.018v-18.663
				C434.003,342.716,433.094,341.806,431.982,341.806z"/>
			<path style="fill-rule:evenodd;clip-rule:evenodd;fill:#FFFFFF;" d="M429.967,345.445h-5.003c-0.298,0-0.541,0.244-0.541,0.541
				v14.345c0,0.298,0.243,0.541,0.541,0.541h5.003c0.298,0,0.541-0.243,0.541-0.541v-14.345
				C430.508,345.689,430.265,345.445,429.967,345.445z"/>
			<path style="fill-rule:evenodd;clip-rule:evenodd;fill:#FFFFFF;" d="M420.337,345.445h-5.002c-0.299,0-0.542,0.244-0.542,0.541
				v14.345c0,0.298,0.243,0.541,0.542,0.541h5.002c0.299,0,0.541-0.243,0.541-0.541v-14.345
				C420.878,345.689,420.636,345.445,420.337,345.445z"/>
		</g>
		<g>
			<rect x="62.5" y="85.514" style="fill-rule:evenodd;clip-rule:evenodd;fill:#94BFDF;" width="87.737" height="82.533"/>
			<rect x="65.304" y="82.076" style="fill-rule:evenodd;clip-rule:evenodd;fill:#FFFFFF;" width="87.737" height="82.533"/>
			<rect x="74.081" y="92.355" style="fill-rule:evenodd;clip-rule:evenodd;fill:#CCE2F0;" width="70.185" height="61.975"/>
			<path style="fill-rule:evenodd;clip-rule:evenodd;fill:#E2EEF4;" d="M144.265,117.039h-1.393l-0.049-1.816
				c-0.008-0.272-0.256-0.492-0.558-0.492h-6.881c-0.308,0-0.558,0.227-0.558,0.506v4.274h-2.797v-1.962
				c0-0.142-0.057-0.261-0.164-0.359c-0.109-0.101-0.243-0.149-0.398-0.147l-2.484,0.013c-0.306,0.003-0.554,0.227-0.554,0.504
				l-0.028,17.257l-2.539-0.004c-0.155,0-0.287,0.049-0.396,0.148c-0.109,0.099-0.164,0.219-0.164,0.357v3.592h-2.033v-0.921
				c0-0.278-0.251-0.505-0.56-0.505h-1.204c-0.274,0-0.502,0.18-0.549,0.415v-1.938l-0.015-15.081c0-0.221-0.149-0.407-0.38-0.478
				l-0.604-0.188c-0.036-0.014-0.078-0.031-0.112-0.05c-0.021-0.13-0.016-0.378-0.018-0.475c-0.007-0.534-0.017-1.063-0.038-1.595
				c-0.012-0.266-0.248-0.477-0.542-0.486l-0.926-0.026l-0.051-9.857c-0.002-0.27-0.236-0.491-0.533-0.503l-0.965-0.039
				l-0.018-3.788c-0.002-0.277-0.25-0.502-0.554-0.503c-0.147,0-0.291,0.006-0.436,0.012c-0.01,0.002-0.019,0.002-0.03,0.002
				c-0.033-0.254-0.019-0.738-0.015-0.881c0.02-1.021,0.062-2.046,0.086-3.066c0.003-0.143-0.05-0.265-0.16-0.365
				c-0.107-0.102-0.242-0.152-0.398-0.152h-8.257c-0.307,0-0.557,0.225-0.559,0.502l-0.024,3.934c-0.215,0-0.359,0.045-0.741,0.28
				c-0.16,0.097-0.246,0.245-0.247,0.418l-0.004,3.646l-1.015,0.033c-0.299,0.012-0.538,0.234-0.538,0.505v9.851l-1.003,0.029
				c-0.299,0.01-0.536,0.23-0.54,0.501l-0.028,2.063h-0.501c-0.307,0-0.557,0.228-0.558,0.506l-0.039,33.619h43.072V117.039
				L144.265,117.039z M97.045,154.33l-0.002-25.244c0-0.22,0.009-0.444,0.003-0.665c-0.005-0.232-0.05-0.443-0.256-0.604
				c-0.179-0.139-0.346-0.146-0.559-0.169c-0.035-0.004-0.07-0.01-0.104-0.015l0.008-2.022c0.002-0.275-0.241-0.501-0.545-0.507
				c-0.238-0.003-0.474,0.005-0.709,0.007c-0.046,0.003-0.142,0.004-0.213,0c-0.057-0.217-0.05-0.801-0.049-0.952
				c0.009-1.035,0.049-2.07,0.062-3.105c0.004-0.338,0.014-0.735-0.041-1.068c-0.042-0.266-0.152-0.498-0.433-0.624
				c-0.013-0.005-0.023-0.009-0.035-0.013c-0.018-0.037-0.035-0.081-0.043-0.107c-0.064-0.175-0.053-0.674-0.055-0.871
				c-0.001-0.289,0.002-0.592-0.031-0.879c-0.03-0.261-0.274-0.457-0.564-0.453l-4.116,0.064c-0.204,0.003-0.383,0.103-0.477,0.253
				c0.006-0.712,0.023-1.423-0.027-2.135c-0.019-0.266-0.26-0.473-0.554-0.474l-4.413-0.028c-0.308,0-0.559,0.224-0.563,0.502
				l-0.037,4.028c-0.024,0.004-0.049,0.01-0.078,0.017c-0.266,0.058-0.468,0.175-0.679,0.332c-0.13,0.099-0.2,0.231-0.202,0.385
				l-0.062,5.131l-0.891,0.071c-0.265,0.02-0.475,0.205-0.505,0.445l-0.265,2.033c-0.09,0.031-0.18,0.059-0.268,0.117
				c-0.261,0.164-0.336,0.419-0.385,0.688c-0.004,0.028-0.007,0.052-0.007,0.083l-0.016,25.779H97.045L97.045,154.33z
				 M76.441,154.33l-0.005-3.698c0-0.142-0.057-0.262-0.166-0.36c-0.109-0.099-0.243-0.147-0.398-0.146l-1.412,0.044
				c-0.147,0.001-0.281,0.055-0.38,0.141v4.019H76.441z"/>
		</g>
		<path style="fill-rule:evenodd;clip-rule:evenodd;fill:#141939;" d="M77.609,412.785h373.503c3.843,0,6.988,3.148,6.988,6.989
			v0.001c0,3.842-3.145,6.989-6.988,6.989H427.53c-2.136,0-3.883,1.748-3.883,3.883l0,0c0,2.135,1.747,3.883,3.883,3.883h8.628
			c2.669,0,4.853,2.185,4.853,4.853v0.002c0,2.668-2.185,4.852-4.853,4.852H93.334c-2.669,0-4.854-2.184-4.854-4.852v-0.002
			c0-2.668,2.185-4.853,4.854-4.853h6.795c2.136,0,3.883-1.747,3.883-3.883l0,0c0-2.136-1.747-3.883-3.883-3.883h-22.52
			c-3.843,0-6.989-3.145-6.989-6.989v-0.001C70.62,415.931,73.767,412.785,77.609,412.785L77.609,412.785z M81.249,444.237
			c2.563,0,4.66-2.098,4.66-4.658v-0.391c0-2.561-2.098-4.658-4.66-4.658l0,0c-2.563,0-4.66,2.097-4.66,4.658v0.391
			C76.589,442.139,78.686,444.237,81.249,444.237L81.249,444.237z"/>
		<g>
			<path style="fill-rule:evenodd;clip-rule:evenodd;fill:#C73048;" d="M120.09,162.579l44.366-25.615
				c3.466-2.001,7.939-0.802,9.94,2.664l15.718,27.224c2.001,3.467,0.802,7.939-2.664,9.94l-14.745,8.513l-0.385,12.746
				c-0.017,0.546-0.292,1.005-0.764,1.278c-0.472,0.273-1.008,0.281-1.488,0.022l-11.231-6.04l-15.753,9.095
				c-3.466,2.001-7.939,0.803-9.941-2.664l-15.718-27.223C115.425,169.053,116.624,164.58,120.09,162.579z"/>
			<path style="fill-rule:evenodd;clip-rule:evenodd;fill:#FFFFFF;" d="M136.398,168.193L136.398,168.193
				c1.152-4.297,5.61-6.871,9.906-5.72l3.906,1.047l1.047-3.906c1.151-4.297,5.608-6.871,9.906-5.719l0,0
				c4.297,1.151,6.871,5.609,5.719,9.906l-1.045,3.906l-4.188,15.625l-15.625-4.187l0,0l-3.906-1.047
				C137.82,176.948,135.247,172.49,136.398,168.193z"/>
		</g>
		<g>
			<path style="fill-rule:evenodd;clip-rule:evenodd;fill:#C73048;" d="M332.696,168.087l36.582,21.12
				c2.857,1.65,3.846,5.338,2.195,8.196l-12.958,22.448c-1.651,2.858-5.339,3.846-8.197,2.197l-12.158-7.021l-9.26,4.98
				c-0.396,0.213-0.838,0.206-1.228-0.019c-0.389-0.225-0.616-0.603-0.629-1.053l-0.317-10.509l-12.988-7.5
				c-2.858-1.649-3.847-5.338-2.197-8.195l12.96-22.447C326.151,167.425,329.839,166.436,332.696,168.087z"/>
			<path style="fill-rule:evenodd;clip-rule:evenodd;fill:#FFFFFF;" d="M335.249,181.102L335.249,181.102
				c3.727-0.999,7.595,1.233,8.592,4.96l0.908,3.389l3.389-0.908c3.729-0.999,7.594,1.234,8.593,4.961l0,0
				c1,3.728-1.233,7.594-4.961,8.593l-3.388,0.908l-13.555,3.633l-3.633-13.555h0.001l-0.907-3.388
				C329.288,185.967,331.521,182.101,335.249,181.102z"/>
		</g>
		<g>
			<path style="fill-rule:evenodd;clip-rule:evenodd;fill:#C73048;" d="M315.981,85.658l27.713,16
				c2.164,1.251,2.913,4.045,1.663,6.21l-9.817,17.006c-1.251,2.165-4.045,2.914-6.21,1.664l-9.211-5.318l-7.015,3.773
				c-0.3,0.161-0.636,0.156-0.931-0.014c-0.294-0.17-0.466-0.458-0.476-0.798l-0.241-7.962l-9.84-5.681
				c-2.165-1.251-2.914-4.045-1.664-6.21l9.818-17.006C311.021,85.157,313.816,84.408,315.981,85.658z"/>
			<path style="fill-rule:evenodd;clip-rule:evenodd;fill:#FFFFFF;" d="M318.767,97.515L318.767,97.515
				c2.301-0.617,4.689,0.762,5.306,3.064l0.561,2.092l2.092-0.561c2.303-0.616,4.69,0.763,5.308,3.064l0,0
				c0.617,2.302-0.763,4.69-3.064,5.307l-2.094,0.561l-8.37,2.243l-2.243-8.371h0.001l-0.562-2.092
				C315.086,100.52,316.463,98.132,318.767,97.515z"/>
		</g>
		<g>
			<path style="fill-rule:evenodd;clip-rule:evenodd;fill:#C73048;" d="M168.009,80.867l30.91-8.282
				c2.415-0.647,4.92,0.798,5.567,3.214l5.083,18.968c0.646,2.414-0.8,4.92-3.214,5.566l-10.273,2.752l-2.293,7.628
				c-0.098,0.326-0.338,0.56-0.666,0.648c-0.329,0.087-0.654,0.006-0.901-0.227l-5.8-5.46l-10.976,2.941
				c-2.415,0.646-4.92-0.8-5.567-3.215l-5.082-18.967C164.148,84.02,165.595,81.515,168.009,80.867z"/>
			<path style="fill-rule:evenodd;clip-rule:evenodd;fill:#FFFFFF;" d="M178.1,86.298L178.1,86.298
				c1.191-2.064,3.855-2.777,5.919-1.587l1.876,1.084l1.083-1.877c1.191-2.063,3.855-2.778,5.919-1.586l0,0
				c2.064,1.192,2.778,3.855,1.586,5.92l-1.083,1.876l-4.333,7.504l-7.504-4.332l0,0l-1.876-1.084
				C177.622,91.025,176.908,88.362,178.1,86.298z"/>
		</g>
		<g>
			<g>
				<path style="fill-rule:evenodd;clip-rule:evenodd;fill:#AACEAC;" d="M82.823,333.061c-12.215-5.365-14.151,8.51-8.725,19.456
					c3.671,7.404,16.904,26.368,25.815,42.499h10.17C106.606,370.613,95.449,338.606,82.823,333.061z"/>
				<path style="fill-rule:evenodd;clip-rule:evenodd;fill:#81A483;" d="M106.452,395.016c-8.672-29.566-28.645-57.428-28.725-57.54
					c-0.172-0.242-0.507-0.299-0.748-0.125c-0.241,0.173-0.296,0.511-0.125,0.752c0.079,0.112,19.841,27.684,28.493,56.913H106.452z
					"/>
			</g>
			<g>
				<path style="fill-rule:evenodd;clip-rule:evenodd;fill:#81A483;" d="M108.637,289.22c12.317-12.274,20.73,3.286,19.013,18.92
					c-1.626,14.82-15.845,65.686-14.145,87.076l-4.853,0.005C97.615,367.805,92.869,304.932,108.637,289.22z"/>
				<path style="fill-rule:evenodd;clip-rule:evenodd;fill:#AACEAC;" d="M110.436,395.219
					c-10.241-43.223,6.203-103.007,6.258-103.209c0.101-0.372,0.479-0.601,0.844-0.511c0.365,0.09,0.58,0.463,0.48,0.834
					c-0.055,0.204-16.519,60.057-6.178,102.884L110.436,395.219z"/>
			</g>
			<g>
				<path style="fill-rule:evenodd;clip-rule:evenodd;fill:#AACEAC;" d="M138.955,316.362c12.913-6.267,15.389,8.479,9.903,20.414
					c-4.547,9.893-23.936,38.943-31.642,57.774l-6.401-0.223C111.529,367.955,123.713,323.758,138.955,316.362z"/>
				<path style="fill-rule:evenodd;clip-rule:evenodd;fill:#81A483;" d="M113.154,394.41c5.865-35.498,31.291-73.413,31.382-73.552
					c0.177-0.268,0.535-0.342,0.797-0.167c0.263,0.175,0.333,0.534,0.155,0.8c-0.091,0.136-25.353,37.808-31.196,72.958
					L113.154,394.41z"/>
			</g>
			<polygon style="fill-rule:evenodd;clip-rule:evenodd;fill:#DF9F84;" points="116.334,396.599 101.023,396.599 97.025,400.207 
				100.291,412.785 108.679,412.785 117.066,412.785 120.332,400.207 			"/>
			<polygon style="fill-rule:evenodd;clip-rule:evenodd;fill:#CB6459;" points="115.117,396.599 101.023,396.599 97.025,400.207 
				98.249,404.922 120.056,401.27 120.332,400.207 116.494,396.743 			"/>
			<path style="fill-rule:evenodd;clip-rule:evenodd;fill:#DF9F84;" d="M120.333,391.917H97.025c-0.697,0-1.268,0.57-1.268,1.269
				v5.755c0,0.695,0.57,1.267,1.268,1.267h23.307c0.697,0,1.267-0.571,1.267-1.267v-5.755
				C121.6,392.487,121.03,391.917,120.333,391.917z"/>
		</g>
		<g>
			<g>
				<path style="fill-rule:evenodd;clip-rule:evenodd;fill:#78A4CA;" d="M395.508,335.985h-28.234c-1.682,0-3.057,1.375-3.057,3.057
					v28.234c0,1.681,1.375,3.057,3.057,3.057h28.234c1.681,0,3.058-1.376,3.058-3.057v-28.234
					C398.565,337.36,397.188,335.985,395.508,335.985z"/>
				<path style="fill-rule:evenodd;clip-rule:evenodd;fill:#FFFFFF;" d="M393.688,335.985h-28.235c-1.68,0-3.056,1.375-3.056,3.057
					v28.234c0,1.681,1.376,3.057,3.056,3.057h28.235c1.682,0,3.057-1.376,3.057-3.057v-28.234
					C396.745,337.36,395.37,335.985,393.688,335.985z"/>
				<path style="fill-rule:evenodd;clip-rule:evenodd;fill:#DEECF3;" d="M388.903,341.806h-18.662c-1.112,0-2.021,0.91-2.021,2.02
					v18.663c0,1.11,0.908,2.018,2.021,2.018h18.662c1.11,0,2.019-0.908,2.019-2.018v-18.663
					C390.923,342.716,390.014,341.806,388.903,341.806z"/>
				<path style="fill-rule:evenodd;clip-rule:evenodd;fill:#FFFFFF;" d="M379.572,361.378c4.527,0,8.22-3.693,8.22-8.221
					c0-4.527-3.692-8.221-8.22-8.221c-4.528,0-8.222,3.693-8.222,8.221C371.351,357.685,375.044,361.378,379.572,361.378z"/>
				<path style="fill-rule:evenodd;clip-rule:evenodd;fill:#141939;" d="M375.191,344.602c8.986,0-2.57,0,6.417,0
					c1.765,0,3.207,1.442,3.207,3.207v10.982c0,1.764-1.442,3.208-3.207,3.208c-8.987,0,2.569,0-6.417,0
					c-4.785,0-8.698-3.914-8.698-8.698l0,0C366.493,348.516,370.406,344.602,375.191,344.602z"/>
				<path style="fill-rule:evenodd;clip-rule:evenodd;fill:#242854;" d="M377.57,346.493c5.19,0-1.486,0,3.706,0
					c1.019,0,1.853,0.833,1.853,1.852v6.346c0,1.017-0.834,1.852-1.853,1.852c-5.192,0,1.484,0-3.706,0
					c-2.765,0-5.025-2.26-5.025-5.023l0,0C372.545,348.754,374.806,346.493,377.57,346.493z"/>
			</g>
			<path style="fill-rule:evenodd;clip-rule:evenodd;fill:#141939;" d="M205.313,384.695l-3.92,4.816c0,0-5.976,22.545-6.558,30.695
				c-0.582,8.149,59.186,9.121,59.186,9.121l48.9-3.299l13.39-9.898c0,0-6.752-24.646-11.837-35.316
				C299.389,370.143,205.313,384.695,205.313,384.695z"/>
			<path style="fill-rule:evenodd;clip-rule:evenodd;fill:#E6F1FA;" d="M204.83,371.693l-3.518,5.56c0,0-1.528,7.151-1.431,8.801
				c0.097,1.65,0.194,3.299,3.105,4.172c2.911,0.875,22.996,6.598,53.073,5.436c30.078-1.165,42.109-7.181,47.155-9.315
				c5.044-2.136,4.435-6.231,0.955-14.031C300.69,364.515,204.83,371.693,204.83,371.693z"/>
			<path style="fill-rule:evenodd;clip-rule:evenodd;fill:#141939;" d="M227.224,109.391c-26.879,9.053-16.766,20.638-18.744,51.62
				c-1.573,24.622-25.87,47.492,14.09,75.465c17.141,11.998,33.324-54.082,33.324-54.082l-28.706-71.294L227.224,109.391z"/>
			<path style="fill-rule:evenodd;clip-rule:evenodd;fill:#CB6459;" d="M250.083,171.249L250.083,171.249
				c8.686,0,15.793,7.107,15.793,15.793v17.14c0,8.686-7.106,15.792-15.792,15.792h-0.001c-8.686,0-15.792-7.107-15.792-15.792
				v-17.14C234.291,178.356,241.397,171.249,250.083,171.249z"/>
			<path style="fill-rule:evenodd;clip-rule:evenodd;fill:#FFFFFF;" d="M193.491,218.958c-7.308,3.249-24.29,10.782-23.753,32.482
				c0.691,27.894-19.323,42.642-9.17,79.849c4.179,15.313,33.46-5.555,36.781-27.472c2.03-13.397,7.318-33.906,7.318-33.906
				S205.885,229.715,193.491,218.958z"/>
			<path style="fill-rule:evenodd;clip-rule:evenodd;fill:#E6F1FA;" d="M157.769,307.929c-0.331,6.825,0.368,14.446,2.8,23.36
				c1.988,7.283,9.656,6.378,17.508,1.07l22.29-44.289c2.105-9.642,4.301-18.159,4.301-18.159s0.411-13.573-1.677-27.056
				l-1.839-1.508c0,0-1.455,14.043-5.094,20.446C193.283,266.676,169.097,294.835,157.769,307.929z"/>
			<path style="fill-rule:evenodd;clip-rule:evenodd;fill:#FFFFFF;" d="M306.68,218.958c7.31,3.249,24.29,10.782,23.754,32.482
				c-0.691,27.894,19.131,53.282,8.978,90.488c-4.18,15.314-31.849,8.777-35.169-13.14c-2.029-13.398-8.738-58.878-8.738-58.878
				S294.285,229.715,306.68,218.958z"/>
			<path style="fill-rule:evenodd;clip-rule:evenodd;fill:#E6F1FA;" d="M306.68,218.958c3.267,1.451,8.461,3.76,13.164,7.803
				l-11.938,30.303c0,0-2.183,6.84-1.31,10.625c0.872,3.783,7.13,28.962,7.13,28.962l-15.578-8.834
				c-1.493-10.097-2.645-17.906-2.645-17.906S294.285,229.715,306.68,218.958z"/>
			<path style="fill-rule:evenodd;clip-rule:evenodd;fill:#FFFFFF;" d="M265.876,202.11c0,0,0.404,4.263,6.597,5.988
				c6.192,1.725,26.899,7.614,34.207,10.861c0,0-9.952,23.142-5.892,49.534c0,0,4.263,19.285,1.015,32.685
				c-3.248,13.399-6.09,28.625,1.219,45.679c6.213,14.496,2.595,23.594,1.326,25.239c-0.224,0.289-0.369,0.427-0.369,0.427
				c-26.584,10.689-76.082,15.419-102.666,4.73c0,0-0.122-0.127-0.332-0.375c-1.859-2.178-10.393-14.705-3.829-30.022
				c7.309-17.054,4.467-32.279,1.218-45.679c-3.248-13.399,1.015-32.685,1.015-32.685c4.06-26.392-5.893-49.534-5.893-49.534
				c7.309-3.247,28.016-9.136,34.207-10.861c6.192-1.725,6.597-5.988,6.597-5.988c4.071,9.335,15.791,10.351,15.791,10.351
				S261.806,211.445,265.876,202.11z"/>
			<path style="fill-rule:evenodd;clip-rule:evenodd;fill:#E6F1FA;" d="M265.876,202.11c0,0,0.404,4.263,6.597,5.988
				c6.192,1.725,26.899,7.614,34.207,10.861c0,0-9.952,23.142-5.892,49.534c0,0,4.263,19.285,1.015,32.685
				c-2.978,12.284-5.613,26.102-0.399,41.458c-6.909-9.925-16.858-24.168-20.277-28.809c-5.434-7.375-13.39-13.196-21.734-13.196
				c-8.344,0-17.27,0-27.748,0c-10.479,0-14.942,9.315-14.942,9.315l-15.747,24.034c2.006-11.937-0.177-22.871-2.585-32.803
				c-3.248-13.399,1.015-32.685,1.015-32.685c0.444-2.888,0.72-5.736,0.861-8.52c4.111,11.897,15.652,24.456,21.114,24.456
				c6.016,0,22.802,0,32.697,0c9.897,0,10.092-7.082,8.927-8.829c-0.922-1.384-32.735-45.943-45.948-64.445
				c4.537-1.336,8.493-2.453,10.664-3.058c6.192-1.725,6.597-5.988,6.597-5.988c4.071,9.335,15.791,10.351,15.791,10.351
				S261.806,211.445,265.876,202.11z"/>
			<path style="fill-rule:evenodd;clip-rule:evenodd;fill:#141939;" d="M267.134,187.573c-4.316,13.429-17.724,26.011-14.715,41.646
				c4.437,23.038,36.024,28.557,35.529,43.2c0,0-0.063,0.459,0.673,0.459c0.081,0,0.32-0.14,0.686-0.393
				c21.713-15.103,25.336-43.11,5.866-62.566l-11.58-44.955L267.134,187.573z"/>
			<path style="fill-rule:evenodd;clip-rule:evenodd;fill:#CB6459;" d="M215.275,151.922c-0.239,0.033-0.474,0.072-0.707,0.121
				l-0.007,0.002l0.001-0.002c-4.302,0.901-7.569,4.676-7.658,9.258c-0.1,5.325,4.136,9.726,9.461,9.827
				c5.327,0.1,9.727-4.135,9.827-9.46c0.06-3.097-1.346-5.879-3.58-7.686c0.245,2.848-0.208,6.372-3.842,6.725l0.105-5.561
				C218.918,152.895,216.819,151.86,215.275,151.922z"/>
			<path style="fill-rule:evenodd;clip-rule:evenodd;fill:#CB6459;" d="M284.892,151.922c0.239,0.033,0.474,0.072,0.707,0.121
				l0.008,0.002l-0.002-0.002c4.303,0.901,7.57,4.676,7.658,9.258c0.101,5.325-4.137,9.726-9.461,9.827
				c-5.326,0.1-9.727-4.135-9.828-9.46c-0.059-3.097,1.348-5.879,3.581-7.686c-0.245,2.848,0.207,6.372,3.842,6.725l-0.105-5.561
				C281.248,152.895,283.348,151.86,284.892,151.922z"/>
			<path style="fill-rule:evenodd;clip-rule:evenodd;fill:#DF9F84;" d="M250.086,103.739L250.086,103.739
				c-18.164,0-33.026,14.861-33.026,33.025v30.037c0,18.163,14.862,33.024,33.026,33.024l0,0c18.159,0,33.021-14.861,33.021-33.024
				v-30.037C283.107,118.601,268.245,103.739,250.086,103.739z"/>
			<path style="fill-rule:evenodd;clip-rule:evenodd;fill:#CE7161;" d="M279.53,181.702c2.285-4.482,3.576-9.548,3.576-14.901
				v-30.037c0-0.44-0.011-0.878-0.027-1.313l-2.25-4.5l-27.652-18.629l-12.587,19.502l31.639,29.704
				C278.793,167.691,281.062,171.292,279.53,181.702z"/>
			<path style="fill-rule:evenodd;clip-rule:evenodd;fill:#141939;" d="M241.579,183.412c-0.186,4.716,3.487,8.69,8.203,8.875
				c4.717,0.187,8.69-3.487,8.875-8.203h-0.016c0.033-0.811-0.604-1.501-1.415-1.533l-14.101-0.554
				c-0.811-0.033-1.501,0.604-1.533,1.415H241.579z"/>
			<path style="fill-rule:evenodd;clip-rule:evenodd;fill:#C9423E;" d="M244.498,190.186c1.418,1.241,3.255,2.021,5.284,2.102
				c1.658,0.066,3.222-0.346,4.564-1.111c-0.587-1.778-2.452-3.164-4.758-3.342C247.388,187.665,245.415,188.645,244.498,190.186z"
				/>
			<path style="fill-rule:evenodd;clip-rule:evenodd;fill:#FFFFFF;" d="M257.414,182.573l-13.252-0.522
				c-0.269,1.456,0.352,2.964,1.325,3.326c1.184,0.439,10.784,0.566,11.492-0.162C257.321,184.864,257.413,183.69,257.414,182.573z"
				/>
			<path style="fill-rule:evenodd;clip-rule:evenodd;fill:#CB6459;" d="M268.842,177.893c-2.396-0.046-4.378,1.862-4.423,4.259
				c-0.046,2.399,1.861,4.38,4.259,4.426c2.396,0.045,4.379-1.863,4.425-4.26C273.147,179.92,271.239,177.938,268.842,177.893z"/>
			<path style="fill-rule:evenodd;clip-rule:evenodd;fill:#ECC480;" d="M262.34,199.814L262.34,199.814
				c0.463,0,0.843,0.38,0.843,0.844v14.053c0,0.464-0.38,0.843-0.843,0.843l0,0c-0.465,0-0.844-0.379-0.844-0.843v-14.053
				C261.496,200.194,261.875,199.814,262.34,199.814z"/>
			
				<path style="fill-rule:evenodd;clip-rule:evenodd;fill:none;stroke:#CCE2F0;stroke-width:1.4173;stroke-linecap:round;stroke-linejoin:round;stroke-miterlimit:2.6131;" d="
				M303.978,372.522c-26.584,10.689-76.082,15.419-102.666,4.73"/>
			<path style="fill-rule:evenodd;clip-rule:evenodd;fill:#CB6459;" d="M231.489,177.183c-2.398-0.044-4.379,1.862-4.425,4.26
				c-0.046,2.399,1.862,4.379,4.26,4.425c2.398,0.046,4.379-1.861,4.426-4.26C235.795,179.21,233.887,177.229,231.489,177.183z"/>
			<path style="fill-rule:evenodd;clip-rule:evenodd;fill:#141939;" d="M229.02,160.273c-0.595,0.298-1.321,0.056-1.619-0.539
				c-0.298-0.596-0.056-1.322,0.537-1.619c3.118-1.608,7.287-1.793,10.346,0.042c0.569,0.341,0.756,1.087,0.416,1.656
				c-0.341,0.569-1.087,0.757-1.657,0.417C234.585,158.756,231.508,159.085,229.02,160.273z"/>
			<path style="fill-rule:evenodd;clip-rule:evenodd;fill:#141939;" d="M271.151,160.276c-2.492-1.191-5.57-1.52-8.027-0.045
				c-0.569,0.341-1.316,0.153-1.657-0.417c-0.34-0.569-0.152-1.315,0.416-1.656c3.059-1.835,7.228-1.65,10.343-0.043
				c0.596,0.298,0.838,1.024,0.539,1.62C272.467,160.33,271.742,160.571,271.151,160.276z"/>
			<path style="fill-rule:evenodd;clip-rule:evenodd;fill:#141939;" d="M217.06,156.325v4.651c1.571,0,3.475-2.287,3.475-4.336
				c0-2.049,0-4.256,0-4.256s4.404-1.385,4.404-7.535c0-6.148,0.72-10.827,5.984-10.827c5.265,0,10.536,2.754,19.164,2.754
				c8.627,0,13.898-2.754,19.163-2.754c5.265,0,6.695,3.663,6.695,9.813c0,6.149,3.692,8.549,3.692,8.549s0,2.207,0,4.256
				c0,2.05,1.903,4.336,3.475,4.336v-4.651c-0.021-3.212,1.152-4.384,1.152-4.384s0-0.159,0-13.822c0-47.047-68.355-47.047-68.355,0
				c0,13.663,0,13.822,0,13.822S217.081,153.113,217.06,156.325z"/>
			<path style="fill-rule:evenodd;clip-rule:evenodd;fill:#141939;" d="M232.59,164.162L232.59,164.162
				c-0.687,0-1.32,0.247-1.813,0.655c-0.21-0.053-0.569-0.197-0.768-0.584c-0.115-0.222-0.388-0.31-0.611-0.194
				c-0.222,0.115-0.31,0.389-0.195,0.611c0.234,0.454,0.595,0.723,0.922,0.88l-0.022,0.027c-0.381-0.089-0.829-0.291-1.184-0.726
				c-0.158-0.194-0.444-0.224-0.638-0.065c-0.193,0.158-0.223,0.444-0.065,0.638c0.399,0.489,0.882,0.769,1.337,0.927l-0.005,0.007
				c-0.428-0.025-0.902-0.143-1.363-0.438c-0.211-0.133-0.492-0.07-0.626,0.141c-0.133,0.212-0.07,0.493,0.141,0.626
				c0.473,0.302,0.955,0.462,1.409,0.534l0.632,0.089v3.443c0,1.568,1.283,2.852,2.851,2.852h0c1.569,0,2.851-1.283,2.851-2.852
				v-3.719C235.441,165.446,234.159,164.162,232.59,164.162z"/>
			<path style="fill-rule:evenodd;clip-rule:evenodd;fill:#141939;" d="M267.576,164.162L267.576,164.162
				c0.688,0,1.32,0.247,1.813,0.655c0.212-0.053,0.569-0.197,0.77-0.584c0.115-0.222,0.388-0.31,0.611-0.194
				c0.222,0.115,0.309,0.389,0.193,0.611c-0.233,0.454-0.594,0.723-0.922,0.88l0.021,0.027c0.383-0.089,0.83-0.291,1.186-0.726
				c0.158-0.194,0.444-0.224,0.639-0.065c0.193,0.158,0.223,0.444,0.064,0.638c-0.398,0.489-0.882,0.769-1.337,0.927l0.006,0.007
				c0.428-0.025,0.902-0.143,1.362-0.438c0.212-0.133,0.492-0.07,0.627,0.141c0.133,0.212,0.07,0.493-0.142,0.626
				c-0.473,0.302-0.954,0.462-1.408,0.534l-0.632,0.089v3.443c0,1.568-1.282,2.852-2.851,2.852h-0.001
				c-1.567,0-2.852-1.283-2.852-2.852v-3.719C264.725,165.446,266.009,164.162,267.576,164.162z"/>
			<path style="fill-rule:evenodd;clip-rule:evenodd;fill:#242854;" d="M243.068,136.162c-26.348-18.525,3.756-29.372,13.43-15.76
				c3.681,5.18-4.693,22.633,15.5,35.652c23.358,15.06-0.998,37.493,22.563,53.526c0.189,0.128,0.499,0.544,0.612,0.338
				c17.19-30.949,5.737-79.555-15.738-103.152c-15.762-17.318-35.594-17.515-52.578-0.059c0,0-2.438,2.513-2.204,7.346
				C224.887,118.887,229.06,129.235,243.068,136.162z"/>
			<path style="fill-rule:evenodd;clip-rule:evenodd;fill:#2A3663;" d="M302.066,157.124c-0.316-1.919-0.685-3.828-1.098-5.726
				c-11.267-1.901-26.232-9.887-17.86-40.222c-1.188-1.549-2.412-3.023-3.674-4.41c-5.676-6.237-11.881-10.252-18.289-12.023
				C260.837,114.144,264.427,156.919,302.066,157.124z"/>
			<path style="fill-rule:evenodd;clip-rule:evenodd;fill:#CB6459;" d="M265.867,241.132c-1.367,1.91-2.709,3.761-4.325,5.23
				c-1.615,1.469-16.131,6.645-16.131,6.645s1.043,3.32,4.269,3.32c3.228,0,5.6,0,8.352,0c2.751,0,4.84,8.919,14.804,12.904
				c7.569,3.029,4.567-17.878,2.689-28.099H265.867z"/>
			<path style="fill-rule:evenodd;clip-rule:evenodd;fill:#CB6459;" d="M225.624,247.097l-3.636-2.613
				c0,0,2.118-10.861,2.118-13.423c0-2.562-0.474-11.768-0.284-13.57c0.19-1.804,6.548-8.541,8.256-10.25
				c1.708-1.707,2.752,3.226-1.329,8.731l-1.803,2.751c0,0,0.95,8.161,0.95,9.49c0,1.328,4.744,7.212,4.744,7.212L225.624,247.097z"
				/>
			<path style="fill-rule:evenodd;clip-rule:evenodd;fill:#242854;" d="M246.996,251.09c0-0.456,0.369-0.824,0.826-0.824
				c0.456,0,0.825,0.368,0.825,0.824v88.086c0,16.552,6.772,31.601,17.683,42.511c10.909,10.909,25.956,17.682,42.51,17.682h38.306
				c2.435,0,4.648-0.996,6.253-2.601c1.604-1.605,2.602-3.818,2.602-6.251v-13.973v-13.972c0-2.889,1.181-5.516,3.085-7.419
				c1.902-1.902,4.529-3.086,7.417-3.086c0.456,0,0.825,0.37,0.825,0.826c0,0.455-0.369,0.825-0.825,0.825
				c-2.433,0-4.646,0.996-6.251,2.602c-1.604,1.603-2.602,3.817-2.602,6.252v13.972v13.973c0,2.888-1.182,5.515-3.084,7.417
				c-1.904,1.904-4.53,3.085-7.42,3.085h-38.306c-17.008,0-32.469-6.957-43.678-18.167c-11.208-11.207-18.165-26.668-18.165-43.676
				V251.09z"/>
			<path style="fill-rule:evenodd;clip-rule:evenodd;fill:#F7E58E;" d="M236.55,194.734h22.541c1.787,0,3.249,1.461,3.249,3.249
				v52.25c0,1.786-1.462,3.248-3.249,3.248H236.55c-1.787,0-3.249-1.462-3.249-3.248v-52.25
				C233.301,196.195,234.764,194.734,236.55,194.734z"/>
			<path style="fill-rule:evenodd;clip-rule:evenodd;fill:#CB6459;" d="M263.259,208.769c0,0-1.241,1.025-1.381,3.49
				c-0.139,2.466,1.528,4.961,2.184,6.595l2.408,8.237c0,0,1.148,11.453,1.349,11.854c0.092,0.18-0.853,1.421-2.125,2.882
				l9.613,0.917c-0.286-3.275-0.56-5.476-0.56-5.476l1.051-5.823c0,0-3.179-8.87-4.436-11.66
				C270.101,216.996,263.88,208.253,263.259,208.769z"/>
			<path style="fill-rule:evenodd;clip-rule:evenodd;fill:#DF9F84;" d="M218.081,280.473c0,0,4.366-9.585,5.124-11.577
				c0.76-1.994,5.599-3.606,7.118-5.79c1.518-2.182,6.31-7.644,7.164-8.256c0.854-0.609,7.118-1.139,7.782-1.186
				c0.664-0.047,6.928,0.38,8.493,0.38c1.564,0,2.277-0.521,2.847-1.708c0.569-1.186-0.143-1.756-3.179-2.277
				c-3.037-0.521-8.54-2.183-10.344-2.088c-1.803,0.094-8.541,1.043-8.541,1.043s9.631-5.931,11.529-6.501
				c1.898-0.568,11.008-2.277,12.146-2.562c1.139-0.285,3.083-2.326,2.8-3.464c-0.285-1.139-2.847-0.9-5.551-0.711
				c-2.706,0.19-10.249,0.616-11.862,1.09c-1.614,0.474-10.676,4.46-10.676,4.46s7.164-6.452,8.35-7.211
				c1.186-0.76,12.194-5.315,13.618-5.979c1.424-0.665,2.04-3.228,1.944-4.509c-0.094-1.281-0.663-2.182-3.083-1.423
				c-2.419,0.759-12.336,3.892-13.713,4.508c-1.376,0.616-7.211,2.846-10.533,4.839c-3.321,1.992-7.402,6.073-9.679,11.198
				c-2.277,5.124-13.76,29.795-13.76,29.795L218.081,280.473z"/>
			<path style="fill-rule:evenodd;clip-rule:evenodd;fill:#D07A67;" d="M254.082,250.178c-0.205-0.041-0.421-0.081-0.652-0.12
				c-1.406-0.243-3.342-0.727-5.195-1.171l-0.985,0.217l-0.311,0.607c0,0,0.965,1.394,2.821,1.357
				C251.099,251.042,253.081,250.486,254.082,250.178L254.082,250.178z M259.147,235.633c-1.013-0.059-2.328,0.047-3.679,0.143
				c-0.982,0.068-2.604,0.17-4.348,0.291l-4.995,4.314l13.021-2.555V235.633L259.147,235.633z M254.414,228.352
				c0.212-0.093,0.377-0.167,0.485-0.217c1.136-0.531,1.759-2.271,1.915-3.602l-4.123-1.994c-0.824,0.261-1.903,0.602-3.086,0.98
				L254.414,228.352z"/>
			<path style="fill-rule:evenodd;clip-rule:evenodd;fill:#CB6459;" d="M223.881,217.223c0.682-2.122,6.563-8.349,8.196-9.982
				c1.708-1.707,2.752,3.226-1.329,8.731l-0.82,1.251H223.881z"/>
			<path style="fill-rule:evenodd;clip-rule:evenodd;fill:#FFFFFF;" d="M237.571,197.839h5.046c1.201,0,2.184,0.981,2.184,2.183l0,0
				c0,1.201-0.983,2.183-2.184,2.183h-5.046c-1.201,0-2.183-0.982-2.183-2.183l0,0C235.388,198.82,236.37,197.839,237.571,197.839z"
				/>
			<path style="fill-rule:evenodd;clip-rule:evenodd;fill:#141939;" d="M237.606,201.597c0.868,0,1.576-0.708,1.576-1.577
				c0-0.867-0.708-1.576-1.576-1.576c-0.869,0-1.576,0.709-1.576,1.576C236.03,200.889,236.738,201.597,237.606,201.597z"/>
			<path style="fill-rule:evenodd;clip-rule:evenodd;fill:#242854;" d="M237.598,198.921c0.312,0,0.594,0.126,0.799,0.331
				c0.206,0.206,0.333,0.488,0.333,0.8c0,0.31-0.127,0.594-0.331,0.799c-0.206,0.206-0.488,0.332-0.8,0.332
				c-0.311,0-0.594-0.126-0.799-0.331c-0.207-0.208-0.333-0.49-0.333-0.8c0-0.312,0.126-0.594,0.331-0.799
				C237.003,199.047,237.287,198.921,237.598,198.921L237.598,198.921z M238.01,199.64c-0.105-0.104-0.251-0.17-0.412-0.17
				c-0.161,0-0.307,0.066-0.412,0.17c-0.105,0.106-0.17,0.251-0.17,0.412c0,0.161,0.065,0.306,0.169,0.411
				c0.105,0.106,0.251,0.171,0.412,0.171c0.161,0,0.307-0.065,0.412-0.171c0.104-0.105,0.17-0.25,0.17-0.411
				C238.18,199.892,238.114,199.746,238.01,199.64z"/>
			<path style="fill-rule:evenodd;clip-rule:evenodd;fill:#FFFFFF;" d="M238.019,199.94c0.281,0,0.511-0.23,0.511-0.511
				c0-0.282-0.229-0.511-0.511-0.511c-0.282,0-0.51,0.229-0.51,0.511C237.509,199.71,237.737,199.94,238.019,199.94z"/>
			<path style="fill-rule:evenodd;clip-rule:evenodd;fill:#242854;" d="M240.53,200.566c0.3,0,0.545-0.246,0.545-0.546
				c0-0.298-0.245-0.544-0.545-0.544c-0.3,0-0.545,0.246-0.545,0.544C239.985,200.321,240.23,200.566,240.53,200.566z"/>
			<path style="fill-rule:evenodd;clip-rule:evenodd;fill:#EBC280;" d="M242.786,201.04c0.561,0,1.019-0.457,1.019-1.019
				c0-0.559-0.458-1.017-1.019-1.017c-0.561,0-1.019,0.458-1.019,1.017C241.767,200.583,242.225,201.04,242.786,201.04z"/>
			<path style="fill-rule:evenodd;clip-rule:evenodd;fill:#FFFFFF;" d="M242.786,200.505c0.267,0,0.484-0.218,0.484-0.485
				c0-0.265-0.217-0.484-0.484-0.484c-0.267,0-0.484,0.219-0.484,0.484C242.302,200.288,242.519,200.505,242.786,200.505z"/>
			<path style="fill-rule:evenodd;clip-rule:evenodd;fill:#ECC480;" d="M247.821,216.877c2.958,0,5.371-2.414,5.371-5.371
				c0-2.958-2.413-5.372-5.371-5.372c-2.959,0-5.371,2.414-5.371,5.372C242.45,214.463,244.862,216.877,247.821,216.877z"/>
			<path style="fill-rule:evenodd;clip-rule:evenodd;fill:#FFFFFF;" d="M247.821,208.233c0.335,0,0.659,0.05,0.963,0.144
				c-0.24,0.272-0.387,0.628-0.387,1.019c0,0.848,0.687,1.534,1.535,1.534c0.391,0,0.747-0.147,1.019-0.387
				c0.093,0.304,0.144,0.628,0.144,0.963c0,1.808-1.465,3.273-3.273,3.273c-1.809,0-3.273-1.465-3.273-3.273
				C244.548,209.699,246.013,208.233,247.821,208.233z"/>
			
				<path style="fill-rule:evenodd;clip-rule:evenodd;fill:none;stroke:#CCE2F0;stroke-width:1.4173;stroke-linecap:round;stroke-linejoin:round;stroke-miterlimit:2.6131;" d="
				M198.369,301.177c-3.248-13.399,1.015-32.685,1.015-32.685c1.718-11.173,0.926-21.764-0.56-30.262"/>
			
				<path style="fill-rule:evenodd;clip-rule:evenodd;fill:none;stroke:#CCE2F0;stroke-width:1.4173;stroke-linecap:round;stroke-linejoin:round;stroke-miterlimit:2.6131;" d="
				M300.099,262.611c0.158,1.935,0.384,3.899,0.689,5.882c0,0,4.263,19.285,1.015,32.685"/>
			<path style="fill-rule:evenodd;clip-rule:evenodd;fill:#CCE2F0;" d="M222.77,276.941c0,0,1.9-4.816,1.924-5.378
				c0.023-0.56-0.036-1.776-0.364-2.27c0,0-8.659-0.159-14.107-7.722c0,0-1.289-0.394-2.264,0.468
				c-0.975,0.859-3.228,3.609-3.228,3.609s-2.842,8.189,3.428,11.747C214.428,280.954,222.77,276.941,222.77,276.941z"/>
			<path style="fill-rule:evenodd;clip-rule:evenodd;fill:#FFFFFF;" d="M168.119,339.461c0,0,10.959,4.642,23.192-7.131
				c12.233-11.773,10.604-20.232,21.793-32.563c11.19-12.333,11.177-16.804,9.665-22.827c0,0-10.99-0.049-18.039-11.292
				c0,0-9.293-0.035-14.286,10.168c-4.993,10.201-8.674,14.902-16.955,20.184C165.21,301.28,150.464,332.483,168.119,339.461z"/>
			
				<path style="fill-rule:evenodd;clip-rule:evenodd;fill:none;stroke:#CCE2F0;stroke-width:1.4173;stroke-linecap:round;stroke-linejoin:round;stroke-miterlimit:2.6131;" d="
				M204.73,265.649c0,0-9.293-0.035-14.286,10.168c-4.993,10.201-8.674,14.902-16.955,20.184
				c-5.732,3.654-14.564,19.736-13.598,31.601 M201.206,319.027c3.157-6.056,5.297-11.982,11.899-19.259
				c11.191-12.333,11.177-16.804,9.665-22.827"/>
			<path style="fill-rule:evenodd;clip-rule:evenodd;fill:#DF9F84;" d="M283.154,291.28c0,0-6.643-12.146-8.445-14.708
				c-1.804-2.563-4.27-7.117-4.27-13.381c0-6.262,1.043-9.394-1.613-11.388c-2.657-1.992-6.358-3.036-6.358-3.036
				s-5.504,0.189-6.595,0.238c-1.091,0.046-6.073,1.423-7.259,1.375c-1.186-0.047-2.325-1.043-2.515-1.803
				c-0.189-0.759-0.189-1.234,1.565-1.898c1.756-0.664,6.405-2.277,8.019-2.516c1.613-0.236,7.07-0.568,8.304-0.568
				c1.233,0,4.555,0.807,4.555,0.807s-3.511-1.662-4.317-2.041c-0.807-0.38-7.069-0.855-8.825-0.57
				c-1.756,0.285-7.165,3.274-10.818,1.139c0,0-0.807-0.64,0.166-1.66c0.974-1.02,10.676-5.34,11.909-5.814
				c1.232-0.473,2.704-0.332,5.267-0.141c2.563,0.189,5.124,0.284,6.31,0.996c1.188,0.711,3.228,1.802,3.228,1.802
				s-3.559-6.737-4.033-7.211c-0.475-0.475-7.733-3.56-8.208-3.702c-0.475-0.143-5.457-0.949-6.832-2.041
				c-1.377-1.091-1.756-2.847-1.756-3.464c0-0.616,0.189-1.043,2.799-0.805c2.609,0.236,5.647,0.52,7.734,0.758
				c2.089,0.237,6.928,2.467,9.347,3.416c2.42,0.949,4.461,4.696,7.117,9.441c2.658,4.745,6.358,14.898,8.067,18.787
				c1.708,3.893,0.569,15.374,7.307,24.295c6.738,8.919,8.541,10.532,8.541,10.532L283.154,291.28z"/>
			<path style="fill-rule:evenodd;clip-rule:evenodd;fill:#CCE2F0;" d="M277.401,286.99c0,0-1.9-4.818-1.925-5.377
				c-0.023-0.561,0.035-1.777,0.365-2.27c0,0,8.658-0.161,14.105-7.722c0,0,1.291-0.395,2.265,0.466
				c0.975,0.861,3.228,3.61,3.228,3.61s2.843,8.19-3.427,11.748C285.742,291.003,277.401,286.99,277.401,286.99z"/>
			<path style="fill-rule:evenodd;clip-rule:evenodd;fill:#FFFFFF;" d="M332.053,349.509c0,0-10.959,4.644-23.192-7.13
				c-12.234-11.771-10.604-20.229-21.794-32.563c-11.19-12.331-11.177-16.802-9.665-22.827c0,0,10.99-0.049,18.039-11.292
				c0,0,9.293-0.034,14.285,10.167c4.993,10.202,8.675,14.904,16.955,20.184C334.96,311.33,349.707,342.533,332.053,349.509z"/>
			
				<path style="fill-rule:evenodd;clip-rule:evenodd;fill:none;stroke:#CCE2F0;stroke-width:1.4173;stroke-linecap:round;stroke-linejoin:round;stroke-miterlimit:2.6131;" d="
				M298.948,329.043c-3.148-6.044-5.292-11.963-11.882-19.227c-11.19-12.331-11.177-16.802-9.665-22.827 M295.44,275.698
				c0,0,9.293-0.034,14.285,10.167c4.993,10.202,8.675,14.904,16.955,20.184c5.835,3.72,14.882,20.316,13.536,32.234"/>
		</g>
		<g>
			<path style="fill-rule:evenodd;clip-rule:evenodd;fill:#FFFFFF;" d="M284.496,75.616c0-0.38,0.31-0.689,0.69-0.689
				c0.38,0,0.689,0.31,0.689,0.689v3.105c0,0.38-0.309,0.689-0.689,0.689c-0.381,0-0.69-0.309-0.69-0.689V75.616L284.496,75.616z
				 M279.793,78.137c-0.271-0.269-0.271-0.707,0-0.977c0.268-0.269,0.706-0.269,0.976,0l2.195,2.195c0.269,0.27,0.269,0.708,0,0.977
				c-0.271,0.269-0.707,0.269-0.977,0L279.793,78.137L279.793,78.137z M278.248,83.245c-0.381,0-0.69-0.31-0.69-0.69
				c0-0.381,0.31-0.69,0.69-0.69h3.105c0.38,0,0.69,0.31,0.69,0.69c0,0.38-0.311,0.69-0.69,0.69H278.248L278.248,83.245z
				 M280.769,87.949c-0.27,0.269-0.708,0.269-0.976,0c-0.271-0.269-0.271-0.707,0-0.977l2.194-2.194c0.27-0.27,0.706-0.27,0.977,0
				c0.269,0.27,0.269,0.707,0,0.976L280.769,87.949L280.769,87.949z M285.876,89.493c0,0.381-0.309,0.69-0.689,0.69
				c-0.381,0-0.69-0.309-0.69-0.69v-3.104c0-0.381,0.31-0.69,0.69-0.69c0.38,0,0.689,0.31,0.689,0.69V89.493L285.876,89.493z
				 M290.581,86.973c0.269,0.27,0.269,0.707,0,0.977c-0.27,0.269-0.708,0.269-0.977,0l-2.195-2.195
				c-0.268-0.269-0.268-0.706,0-0.976c0.27-0.27,0.707-0.27,0.976,0L290.581,86.973L290.581,86.973z M292.126,81.865
				c0.379,0,0.689,0.31,0.689,0.69c0,0.38-0.31,0.69-0.689,0.69h-3.105c-0.381,0-0.69-0.31-0.69-0.69c0-0.381,0.309-0.69,0.69-0.69
				H292.126L292.126,81.865z M289.604,77.16c0.269-0.269,0.707-0.269,0.977,0c0.269,0.27,0.269,0.707,0,0.977l-2.196,2.195
				c-0.268,0.269-0.706,0.269-0.976,0c-0.268-0.269-0.268-0.707,0-0.977L289.604,77.16z"/>
			<g>
				<path style="fill-rule:evenodd;clip-rule:evenodd;fill:#FFFFFF;" d="M369.287,160.402h3.593c0.657,0,1.195,0.538,1.195,1.196
					v3.591c0,0.657-0.538,1.196-1.195,1.196h-3.593c-0.657,0-1.194-0.539-1.194-1.196v-3.591
					C368.093,160.939,368.63,160.402,369.287,160.402z"/>
				<path style="fill-rule:evenodd;clip-rule:evenodd;fill:#FFFFFF;" d="M381.554,160.402h3.59c0.658,0,1.197,0.538,1.197,1.196
					v3.591c0,0.657-0.539,1.196-1.197,1.196h-3.59c-0.658,0-1.195-0.539-1.195-1.196v-3.591
					C380.358,160.939,380.896,160.402,381.554,160.402z"/>
				<path style="fill-rule:evenodd;clip-rule:evenodd;fill:#FFFFFF;" d="M393.818,160.402h3.591c0.658,0,1.195,0.538,1.195,1.196
					v3.591c0,0.657-0.537,1.196-1.195,1.196h-3.591c-0.658,0-1.195-0.539-1.195-1.196v-3.591
					C392.623,160.939,393.16,160.402,393.818,160.402z"/>
				<path style="fill-rule:evenodd;clip-rule:evenodd;fill:#FFFFFF;" d="M406.084,160.402h3.591c0.657,0,1.195,0.538,1.195,1.196
					v3.591c0,0.657-0.538,1.196-1.195,1.196h-3.591c-0.659,0-1.197-0.539-1.197-1.196v-3.591
					C404.887,160.939,405.425,160.402,406.084,160.402z"/>
			</g>
			<path style="fill-rule:evenodd;clip-rule:evenodd;fill:#FFFFFF;" d="M145.361,243.859c0-0.38,0.309-0.69,0.69-0.69
				c0.381,0,0.69,0.31,0.69,0.69v3.105c0,0.38-0.309,0.69-0.69,0.69c-0.381,0-0.69-0.309-0.69-0.69V243.859L145.361,243.859z
				 M140.657,246.379c-0.269-0.268-0.269-0.707,0-0.976c0.269-0.269,0.707-0.269,0.976,0l2.195,2.197
				c0.269,0.268,0.269,0.706,0,0.975c-0.27,0.27-0.707,0.27-0.977,0L140.657,246.379L140.657,246.379z M139.114,251.487
				c-0.381,0-0.691-0.309-0.691-0.688c0-0.382,0.31-0.691,0.691-0.691h3.104c0.381,0,0.691,0.309,0.691,0.691
				c0,0.38-0.31,0.688-0.691,0.688H139.114L139.114,251.487z M141.634,256.192c-0.27,0.269-0.707,0.269-0.976,0
				c-0.269-0.27-0.269-0.707,0-0.977l2.195-2.194c0.27-0.27,0.706-0.27,0.977,0c0.269,0.269,0.269,0.706,0,0.976L141.634,256.192
				L141.634,256.192z M146.742,257.735c0,0.382-0.309,0.691-0.69,0.691c-0.381,0-0.69-0.31-0.69-0.691v-3.103
				c0-0.383,0.309-0.692,0.69-0.692c0.381,0,0.69,0.309,0.69,0.692V257.735L146.742,257.735z M151.446,255.215
				c0.27,0.27,0.27,0.707,0,0.977c-0.269,0.269-0.707,0.269-0.976,0l-2.195-2.195c-0.269-0.27-0.269-0.707,0-0.976
				c0.27-0.27,0.707-0.27,0.977,0L151.446,255.215L151.446,255.215z M152.99,250.107c0.381,0,0.69,0.309,0.69,0.691
				c0,0.38-0.31,0.688-0.69,0.688h-3.104c-0.381,0-0.691-0.309-0.691-0.688c0-0.382,0.309-0.691,0.691-0.691H152.99L152.99,250.107z
				 M150.47,245.403c0.27-0.269,0.707-0.269,0.976,0c0.27,0.27,0.27,0.708,0,0.976l-2.195,2.195c-0.27,0.27-0.706,0.27-0.977,0
				c-0.269-0.269-0.269-0.706,0-0.975L150.47,245.403z"/>
			<path style="fill-rule:evenodd;clip-rule:evenodd;fill:#FFFFFF;" d="M364.251,265.398c0-0.379,0.31-0.689,0.691-0.689
				c0.381,0,0.689,0.31,0.689,0.689v3.105c0,0.381-0.309,0.691-0.689,0.691c-0.381,0-0.691-0.31-0.691-0.691V265.398
				L364.251,265.398z M359.547,267.918c-0.269-0.268-0.269-0.706,0-0.975c0.27-0.269,0.707-0.269,0.977,0l2.195,2.196
				c0.27,0.268,0.27,0.706,0,0.975c-0.27,0.27-0.707,0.27-0.977,0L359.547,267.918L359.547,267.918z M358.002,273.028
				c-0.38,0-0.689-0.31-0.689-0.69c0-0.382,0.309-0.689,0.689-0.689h3.105c0.381,0,0.69,0.308,0.69,0.689
				c0,0.381-0.31,0.69-0.69,0.69H358.002L358.002,273.028z M360.523,277.731c-0.27,0.271-0.707,0.271-0.977,0
				c-0.269-0.269-0.269-0.706,0-0.977l2.195-2.194c0.27-0.27,0.707-0.27,0.977,0c0.27,0.271,0.27,0.706,0,0.977L360.523,277.731
				L360.523,277.731z M365.631,279.275c0,0.382-0.309,0.691-0.689,0.691c-0.381,0-0.691-0.31-0.691-0.691v-3.104
				c0-0.382,0.31-0.691,0.691-0.691c0.381,0,0.689,0.31,0.689,0.691V279.275L365.631,279.275z M370.335,276.754
				c0.271,0.271,0.271,0.708,0,0.977c-0.268,0.271-0.706,0.271-0.977,0l-2.194-2.194c-0.268-0.27-0.268-0.706,0-0.977
				c0.271-0.27,0.707-0.27,0.977,0L370.335,276.754L370.335,276.754z M371.88,271.648c0.381,0,0.691,0.308,0.691,0.689
				c0,0.381-0.31,0.69-0.691,0.69h-3.104c-0.381,0-0.69-0.31-0.69-0.69c0-0.382,0.31-0.689,0.69-0.689H371.88L371.88,271.648z
				 M369.358,266.943c0.271-0.269,0.708-0.269,0.977,0c0.271,0.269,0.271,0.707,0,0.975l-2.194,2.196c-0.27,0.27-0.706,0.27-0.977,0
				c-0.268-0.269-0.268-0.707,0-0.975L369.358,266.943z"/>
			<path style="fill-rule:evenodd;clip-rule:evenodd;fill:#CCE2F0;" d="M165.069,369.129c0-0.38,0.309-0.689,0.69-0.689
				c0.381,0,0.691,0.31,0.691,0.689v3.105c0,0.381-0.309,0.689-0.691,0.689c-0.381,0-0.69-0.309-0.69-0.689V369.129L165.069,369.129
				z M160.365,371.649c-0.27-0.268-0.27-0.706,0-0.975c0.27-0.27,0.707-0.27,0.976,0l2.196,2.195c0.269,0.269,0.269,0.706,0,0.975
				c-0.27,0.271-0.707,0.271-0.977,0L160.365,371.649L160.365,371.649z M158.82,376.758c-0.38,0-0.69-0.309-0.69-0.689
				c0-0.382,0.31-0.691,0.69-0.691h3.104c0.381,0,0.69,0.309,0.69,0.691c0,0.381-0.309,0.689-0.69,0.689H158.82L158.82,376.758z
				 M161.34,381.462c-0.269,0.27-0.706,0.27-0.976,0c-0.27-0.27-0.27-0.706,0-0.977l2.195-2.194c0.27-0.271,0.707-0.271,0.977,0
				c0.269,0.27,0.269,0.706,0,0.977L161.34,381.462L161.34,381.462z M166.449,383.007c0,0.38-0.309,0.691-0.691,0.691
				c-0.381,0-0.69-0.311-0.69-0.691v-3.104c0-0.382,0.309-0.691,0.69-0.691c0.381,0,0.691,0.31,0.691,0.691V383.007L166.449,383.007
				z M171.153,380.486c0.27,0.271,0.27,0.707,0,0.977c-0.269,0.27-0.706,0.27-0.976,0l-2.195-2.194c-0.27-0.271-0.27-0.707,0-0.977
				c0.27-0.271,0.706-0.271,0.976,0L171.153,380.486L171.153,380.486z M172.697,375.378c0.381,0,0.69,0.309,0.69,0.691
				c0,0.381-0.309,0.689-0.69,0.689h-3.105c-0.381,0-0.69-0.309-0.69-0.689c0-0.382,0.309-0.691,0.69-0.691H172.697L172.697,375.378
				z M170.177,370.674c0.27-0.27,0.706-0.27,0.976,0c0.27,0.269,0.27,0.707,0,0.975l-2.195,2.195c-0.27,0.271-0.707,0.271-0.976,0
				c-0.27-0.269-0.27-0.706,0-0.975L170.177,370.674z"/>
			<g>
				<path style="fill-rule:evenodd;clip-rule:evenodd;fill:#FFFFFF;" d="M70.162,267.49h3.591c0.658,0,1.197,0.538,1.197,1.195
					v3.592c0,0.656-0.539,1.196-1.197,1.196h-3.591c-0.658,0-1.196-0.54-1.196-1.196v-3.592
					C68.966,268.028,69.504,267.49,70.162,267.49z"/>
				<path style="fill-rule:evenodd;clip-rule:evenodd;fill:#FFFFFF;" d="M82.427,267.49h3.591c0.657,0,1.196,0.538,1.196,1.195
					v3.592c0,0.656-0.539,1.196-1.196,1.196h-3.591c-0.658,0-1.196-0.54-1.196-1.196v-3.592
					C81.231,268.028,81.769,267.49,82.427,267.49z"/>
				<path style="fill-rule:evenodd;clip-rule:evenodd;fill:#FFFFFF;" d="M94.692,267.49h3.591c0.658,0,1.196,0.538,1.196,1.195
					v3.592c0,0.656-0.538,1.196-1.196,1.196h-3.591c-0.658,0-1.197-0.54-1.197-1.196v-3.592
					C93.495,268.028,94.034,267.49,94.692,267.49z"/>
				<path style="fill-rule:evenodd;clip-rule:evenodd;fill:#FFFFFF;" d="M106.957,267.49h3.591c0.657,0,1.196,0.538,1.196,1.195
					v3.592c0,0.656-0.539,1.196-1.196,1.196h-3.591c-0.658,0-1.196-0.54-1.196-1.196v-3.592
					C105.76,268.028,106.298,267.49,106.957,267.49z"/>
			</g>
		</g>
	</g>
</g>
</svg>
