<svg id="visual" viewBox="0 0 960 540" width="960" height="540" xmlns="http://www.w3.org/2000/svg" xmlns:xlink="http://www.w3.org/1999/xlink" version="1.1"><rect x="0" y="0" width="960" height="540" fill="#000000"></rect><defs><linearGradient id="grad1_0" x1="43.8%" y1="0%" x2="100%" y2="100%"><stop offset="14.444444444444446%" stop-color="#000000" stop-opacity="1"></stop><stop offset="85.55555555555554%" stop-color="#000000" stop-opacity="1"></stop></linearGradient></defs><defs><linearGradient id="grad2_0" x1="0%" y1="0%" x2="56.3%" y2="100%"><stop offset="14.444444444444446%" stop-color="#000000" stop-opacity="1"></stop><stop offset="85.55555555555554%" stop-color="#000000" stop-opacity="1"></stop></linearGradient></defs><g transform="translate(960, 0)"><path d="M0 486C-55 450.9 -110 415.8 -160.7 388C-211.4 360.3 -257.9 340 -309.7 309.7C-361.5 279.5 -418.7 239.3 -449 186C-479.3 132.7 -482.6 66.4 -486 0L0 0Z" fill="#CBE4DE"></path></g><g transform="translate(0, 540)"><path d="M0 -486C55.4 -456.5 110.7 -426.9 167.6 -404.7C224.5 -382.4 282.9 -367.5 333 -333C383.1 -298.6 424.9 -244.7 449 -186C473.1 -127.2 479.6 -63.6 486 0L0 0Z" fill="#CBE4DE"></path></g></svg>