<svg xmlns="http://www.w3.org/2000/svg" viewBox="0 0 43.2 50.98"><title>r17</title><g data-name="&#x56FE;&#x5C42; 2"><g data-name="Layer 1"><path d="M13 23.69h7.56a7.85 7.85 0 0 0 .88-.05L13 13z" fill="#f15a24"/><path fill="none" d="M15.32 34.78l.23.3-.21-.3h-.02z"/><path d="M20.59 12H13v1l8.44 10.62c7.27-.8 6.98-11.62-.85-11.62z" fill="#fff"/><path fill="#ed1c24" d="M0 50.98h13.03v-16.2h2.29L0 15.52v35.46z"/><path d="M30.84 35.41l-1.53-1.93-7.83-9.85a7.85 7.85 0 0 1-.88.05H13V13L2.68 0H0v15.52l15.32 19.26.22.3L28.2 51h15z" fill="#f15a24"/><path d="M13 12h7.56c7.83 0 8.12 10.8.88 11.61l7.83 9.85c6.19-1.94 10-7.27 10-16.71C39 4.82 30.89 0 20.38 0H2.68L13 13z" fill="#f7931e"/></g></g></svg>